<?xml version="1.0" encoding="utf-8"?>
<!-- Generator: Adobe Illustrator 23.0.5, SVG Export Plug-In . SVG Version: 6.00 Build 0)  -->
<svg version="1.1" id="Layer_1" xmlns="http://www.w3.org/2000/svg" xmlns:xlink="http://www.w3.org/1999/xlink" x="0px" y="0px"
	 viewBox="0 0 284 58" style="enable-background:new 0 0 284 58;" xml:space="preserve">
<style type="text/css">
	.st0{fill:#FFFFFF;}
	.st1{fill:#D6D5D4;}
	.st2{fill:#C8C6C6;}
	.st3{fill:#DBDAD9;}
	.st4{fill:#7D7B7B;}
	.st5{fill:#DFDEDE;}
	.st6{fill:#898787;}
	.st7{fill:#8F8D8D;}
	.st8{fill:#767474;}
	.st9{fill:#BAB7B7;}
	.st10{fill:#ADAAA9;}
	.st11{fill:#918F8F;}
	.st12{fill:#9B9898;}
	.st13{fill:#ADAAAA;}
	.st14{fill:#CAC8C8;}
	.st15{fill:#B3B0B0;}
	.st16{fill:#D7D5D5;}
	.st17{fill:#DDDCDC;}
	.st18{fill:#908E8E;}
	.st19{fill:#B8B6B6;}
	.st20{fill:#CCCACA;}
	.st21{fill:#EC1D24;}
	.st22{fill:none;stroke:#EC1D24;stroke-miterlimit:10;}
	.st23{fill:#3A3A3A;}
	.st24{font-family:'Metropolis-ExtraLight';}
	.st25{font-size:20.4321px;}
	.st26{letter-spacing:7;}
</style>
<g>
	<g>
		<path d="M54.69,6.47c0,14.91,0,29.81,0,44.72c-0.07,0.56-0.36,1.02-0.68,1.45c-0.59,0.77-1.35,1.28-2.29,1.53
			c-0.25,0.07-0.51,0.06-0.76,0.07c-0.1,0-0.19,0-0.29,0c-0.21,0-0.41,0-0.62,0c-0.22,0-0.44,0-0.66,0c-0.12,0-0.23,0-0.35,0
			c-0.12,0-0.23,0-0.35,0c-0.34,0-0.69,0-1.03,0c-0.26,0-0.52,0-0.78,0c-0.12,0-0.23,0-0.35,0c-0.07,0-0.14,0-0.21,0
			c-6.41,0-12.81,0-19.22,0c-0.07,0-0.15,0-0.22,0c-0.87,0-1.73,0-2.6,0c-0.27,0-0.55,0-0.82,0c-0.1,0-0.21,0-0.31,0
			c-0.1,0-0.2,0-0.3,0c-0.07,0-0.15,0-0.22,0c-1.01,0.01-1.85-0.37-2.6-1.04c-0.45-0.4-0.8-0.88-1.03-1.43
			c-0.17-0.4-0.3-0.83-0.29-1.29c0-14.48,0-28.96,0-43.43c0.1-0.81,0.38-1.53,0.93-2.15c0.79-0.89,1.8-1.31,2.96-1.45
			c0.07-0.01,0.15-0.01,0.22-0.01c9.31,0,18.62-0.01,27.92,0.01c1.72,0.01,3.19,0.97,3.85,2.55C54.65,6.17,54.65,6.32,54.69,6.47z"
			/>
		<path class="st0" d="M54.69,6.47C54.63,6.4,54.63,6.3,54.6,6.22c-0.51-1.36-1.5-2.19-2.89-2.55c-0.43-0.11-0.87-0.16-1.31-0.16
			c-9.2,0.01-18.39,0-27.59,0c-1.72,0.13-3.05,0.87-3.79,2.5c-0.14,0.32-0.22,0.68-0.28,1.03c-0.04,0.23,0,0.46-0.02,0.7
			c-0.01,0.02-0.03,0.03-0.05,0.02c0-1.45,0-2.9,0-4.35c12.01,0,24.02,0,36.02,0C54.69,4.42,54.69,5.45,54.69,6.47z"/>
		<path class="st0" d="M18.73,50.56c0.03,0.4,0.12,0.78,0.28,1.14c0.39,0.91,1.02,1.62,1.91,2.08c0.51,0.27,1.04,0.4,1.61,0.44
			c0.02,0,0.05,0.01,0.07,0.01c0.01,0.01,0.02,0.01,0.01,0.02c0,0.01-0.01,0.01-0.01,0.01c-1.31,0-2.62,0-3.94,0
			c0-1.35,0-2.7,0-4.05c0.02-0.01,0.04-0.01,0.05,0.01C18.73,50.34,18.7,50.45,18.73,50.56z"/>
		<path class="st0" d="M50.98,54.23c0.77-0.05,1.47-0.3,2.1-0.75c0.72-0.52,1.23-1.21,1.54-2.04c0.03-0.08,0.01-0.17,0.08-0.24
			c0,1.02,0,2.05,0,3.07c-1.24,0-2.47,0-3.71,0c-0.01-0.01-0.02-0.02-0.01-0.02C50.97,54.24,50.97,54.23,50.98,54.23z"/>
		<path class="st1" d="M18.66,44.07c0-11.31,0-22.62,0-33.92c0.03-0.01,0.05,0,0.05,0.03c0,0.06,0,0.11,0,0.17
			c0,11.18,0,22.36,0,33.53c0,0.06,0,0.11,0,0.17C18.71,44.07,18.69,44.08,18.66,44.07z"/>
		<path class="st2" d="M27.06,54.24c0.08,0,0.16-0.01,0.24-0.01c6.27,0,12.54,0,18.82,0c0.07,0,0.14,0,0.21,0.01
			c0.01,0.01,0.02,0.01,0.01,0.02c0,0.01-0.01,0.01-0.01,0.01c-6.42,0-12.85,0-19.27,0c-0.01-0.01-0.02-0.02-0.01-0.02
			C27.06,54.24,27.06,54.24,27.06,54.24z"/>
		<path class="st3" d="M18.66,44.07c0.01,0,0.02,0,0.03,0c0.05,0.04,0.03,0.11,0.03,0.16c0,1.95,0,3.89,0,5.84
			c0,0.05,0.02,0.11-0.03,0.16c-0.01,0-0.02,0-0.03-0.01C18.66,48.17,18.66,46.12,18.66,44.07z"/>
		<path class="st4" d="M24.25,54.24c0.34,0,0.67-0.01,1.01-0.01c0.54,0,1.08,0,1.62,0.01c0.01,0.01,0.02,0.01,0.01,0.02
			c0,0.01-0.01,0.01-0.01,0.01c-0.87,0-1.75,0-2.62,0c-0.01-0.01-0.02-0.01-0.01-0.02C24.24,54.24,24.24,54.24,24.25,54.24z"/>
		<path class="st5" d="M18.69,10.14c-0.01,0-0.02,0-0.03,0c0-0.8,0-1.6,0-2.4c0.01,0,0.02-0.01,0.03-0.01
			c0.04,0.03,0.03,0.07,0.03,0.1c0,0.73,0,1.47,0,2.2C18.72,10.08,18.73,10.12,18.69,10.14z"/>
		<path class="st6" d="M47.64,54.24c0.35-0.01,0.7-0.01,1.05,0c0.01,0.01,0.02,0.01,0.01,0.02c0,0.01-0.01,0.01-0.01,0.01
			c-0.35,0-0.7,0-1.05,0c-0.01-0.01-0.02-0.01-0.01-0.02C47.63,54.24,47.64,54.24,47.64,54.24z"/>
		<path class="st7" d="M24.25,54.24c0,0.01,0,0.02,0,0.03c-0.27,0-0.55,0-0.82,0c-0.01-0.01-0.02-0.01-0.01-0.02
			c0-0.01,0.01-0.01,0.01-0.01C23.7,54.22,23.97,54.23,24.25,54.24z"/>
		<path class="st8" d="M47.64,54.24c0,0.01,0,0.02,0,0.03c-0.26,0-0.52,0-0.79,0c-0.01-0.01-0.02-0.01-0.01-0.02
			c0-0.01,0.01-0.01,0.01-0.01C47.12,54.24,47.38,54.24,47.64,54.24z"/>
		<path class="st9" d="M49.37,54.24c0.22-0.01,0.45-0.01,0.67,0c0.01,0.01,0.02,0.01,0.01,0.02c0,0.01-0.01,0.01-0.01,0.01
			c-0.22,0-0.45,0-0.67,0c-0.01-0.01-0.02-0.01-0.01-0.02C49.36,54.24,49.36,54.24,49.37,54.24z"/>
		<path class="st10" d="M50.04,54.27c0-0.01,0-0.02,0-0.03c0.21,0,0.43,0,0.64,0c0.01,0.01,0.01,0.01,0.01,0.02
			c0,0.01-0.01,0.01-0.01,0.01C50.46,54.27,50.25,54.27,50.04,54.27z"/>
		<path class="st11" d="M46.85,54.24c0,0.01,0,0.02,0,0.03c-0.11,0-0.22,0-0.34,0c-0.01-0.01-0.02-0.01-0.01-0.02
			c0-0.01,0.01-0.01,0.01-0.01C46.63,54.24,46.74,54.24,46.85,54.24z"/>
		<path class="st12" d="M48.69,54.27c0-0.01,0-0.02,0-0.03c0.11,0,0.22,0,0.34,0c0.01,0.01,0.02,0.01,0.01,0.02
			c0,0.01-0.01,0.01-0.01,0.01C48.92,54.27,48.8,54.27,48.69,54.27z"/>
		<path class="st13" d="M49.03,54.27c0-0.01,0-0.02,0-0.03c0.11-0.01,0.22-0.01,0.34,0c0,0.01,0,0.02,0,0.03
			C49.25,54.27,49.14,54.27,49.03,54.27z"/>
		<path class="st14" d="M22.82,54.23c0.1-0.01,0.2-0.01,0.3,0c0.01,0.01,0.02,0.01,0.01,0.02c0,0.01-0.01,0.01-0.01,0.01
			c-0.1,0-0.2,0-0.3,0c-0.01-0.01-0.02-0.01-0.01-0.02C22.82,54.24,22.82,54.23,22.82,54.23z"/>
		<path class="st15" d="M23.13,54.27c0-0.01,0-0.02,0-0.03c0.1-0.01,0.2-0.01,0.3,0c0,0.01,0,0.02,0,0.03
			C23.33,54.27,23.23,54.27,23.13,54.27z"/>
		<path class="st16" d="M50.68,54.27c0-0.01,0-0.02,0-0.03c0.1-0.01,0.2-0.01,0.3,0c0,0.01,0,0.02,0,0.03
			C50.88,54.27,50.78,54.27,50.68,54.27z"/>
		<path class="st17" d="M22.82,54.23c0,0.01,0,0.02,0,0.03c-0.07,0-0.15,0-0.22,0c0-0.01,0-0.02,0-0.03
			C22.67,54.22,22.75,54.23,22.82,54.23z"/>
		<path class="st18" d="M26.87,54.27c0-0.01,0-0.02,0-0.03c0.06,0,0.13,0,0.19,0c0,0.01,0,0.02,0,0.03
			C27,54.27,26.94,54.27,26.87,54.27z"/>
		<path class="st19" d="M46.51,54.24c0,0.01,0,0.02,0,0.03c-0.06,0-0.12,0-0.19,0c0-0.01,0-0.02,0-0.03
			C46.39,54.23,46.45,54.24,46.51,54.24z"/>
		<path class="st0" d="M19.54,28.7c0-6.73,0-13.47,0-20.2c0-0.38,0-0.76,0.02-1.14c0.03-0.57,0.17-1.09,0.52-1.55
			c0.01-0.01,0.02-0.03,0.03-0.05c0.17-0.4,0.48-0.67,0.82-0.91c0.32-0.22,0.67-0.37,1.05-0.45c0.39-0.08,0.78-0.09,1.17-0.09
			c7.5-0.03,14.99-0.01,22.49-0.01c1.77,0,3.54,0,5.3,0c0.8,0,1.52,0.24,2.12,0.79c0.31,0.28,0.57,0.61,0.75,1
			c0.12,0.26,0.27,0.51,0.29,0.8c0.03,0.43,0.07,0.86,0.07,1.29c0,0.84-0.02,1.67-0.02,2.51c0.04,8.18,0,16.37,0.01,24.55
			c0,0.36-0.02,0.71-0.02,1.07c0.04,4.3,0.01,8.61,0.02,12.91c0,0.57-0.02,1.15-0.09,1.72c-0.02,0.13-0.05,0.26-0.12,0.37
			c-0.02,0.03-0.04,0.07-0.05,0.1c-0.16,0.49-0.46,0.88-0.84,1.22c-0.34,0.31-0.72,0.55-1.16,0.69c-0.19,0.06-0.37,0.1-0.57,0.1
			c-1.35,0.01-2.7,0.02-4.05,0.02c-7.2,0-14.41,0-21.61,0c-1.08,0-2.16-0.02-3.24-0.02c-0.22,0-0.43-0.03-0.64-0.12
			c-0.02-0.01-0.03-0.02-0.05-0.02c-0.58-0.15-1.04-0.51-1.41-0.96c-0.18-0.22-0.33-0.47-0.46-0.73c-0.04-0.09-0.08-0.18-0.14-0.26
			c-0.04-0.05-0.07-0.12-0.07-0.19c-0.02-0.3-0.11-0.59-0.13-0.89c-0.01-0.12-0.01-0.25-0.01-0.37c0-6.85,0-13.71,0-20.56
			C19.54,29.1,19.54,28.9,19.54,28.7z"/>
		<path class="st20" d="M18.69,10.14c0.01-0.8,0.01-1.6,0-2.4c0-0.17,0-0.34,0.01-0.51c0-0.07-0.01-0.14,0.04-0.19
			c0,0.76-0.01,1.51-0.01,2.27c0,11.6,0,23.21,0,34.81c0,1.98,0,3.96,0,5.94c0,0.17,0.03,0.34,0.01,0.5
			c-0.06-0.1-0.02-0.22-0.04-0.33c0-0.05,0.01-0.1,0.01-0.15c0-1.95,0-3.9,0-5.85c0-0.05,0-0.1-0.01-0.15
			c0-0.07,0.01-0.15,0.01-0.22c0-11.16,0-22.32,0-33.48C18.7,10.29,18.69,10.22,18.69,10.14z"/>
		<path class="st21" d="M20.98,28.91c0-1.29,0-2.52,0-3.75c0-5.05,0-10.11,0-15.16c0-0.29-0.01-0.58,0.04-0.86
			c0.06-0.35,0.12-0.7,0.3-1.02c0.16-0.28,0.31-0.56,0.48-0.82c0.16-0.24,0.35-0.44,0.59-0.59c0.18-0.11,0.35-0.24,0.52-0.37
			c0.08-0.06,0.17-0.1,0.27-0.13c0.57-0.19,1.15-0.25,1.75-0.25c6.4,0,12.81-0.01,19.21-0.01c1.67,0,3.35,0,5.02,0.02
			c0.73,0.01,1.38,0.21,1.98,0.62c0.45,0.31,0.79,0.7,1.06,1.17c0.07,0.12,0.13,0.24,0.2,0.36c0.08,0.14,0.13,0.28,0.16,0.44
			c0.13,0.6,0.18,1.21,0.18,1.82c-0.01,6.14,0,12.28,0,18.42c0,6.38,0,12.76,0,19.14c0,0.65-0.13,1.28-0.42,1.86
			c-0.41,0.81-1.05,1.38-1.89,1.74c-0.2,0.08-0.41,0.12-0.62,0.14c-0.29,0.02-0.59,0.04-0.88,0.04c-6.01,0.06-12.02,0.03-18.03,0.03
			c-1.95,0-3.9,0-5.85,0c-0.39,0-0.79-0.01-1.18-0.06c-0.17-0.02-0.34-0.07-0.51-0.13c-0.63-0.23-1.15-0.62-1.58-1.13
			c-0.12-0.15-0.23-0.3-0.31-0.47c-0.02-0.04-0.03-0.08-0.06-0.12c-0.25-0.39-0.33-0.84-0.42-1.29c-0.03-0.15-0.03-0.3-0.03-0.45
			c0-2.78,0-5.56,0-8.34c0-3.05,0-6.11,0-9.16C20.98,30.01,20.95,29.43,20.98,28.91z"/>
		<path class="st0" d="M40.05,8.52c0.14,0,0.33,0.04,0.51,0.11c0.32,0.12,0.62,0.26,0.82,0.56c0.13,0.2,0.27,0.39,0.41,0.58
			c0.27,0.37,0.51,0.75,0.8,1.1c0.03,0.03,0.06,0.07,0.08,0.1c0.46,0.74,0.98,1.43,1.46,2.15c0.31,0.47,0.65,0.93,0.95,1.41
			c0.14,0.22,0.32,0.4,0.48,0.59c0.26,0.31,0.54,0.61,0.82,0.9c0.46,0.48,0.94,0.95,1.47,1.36c0.32,0.24,0.45,0.55,0.5,0.92
			c0.02,0.16,0.02,0.31-0.01,0.47c-0.04,0.2-0.17,0.26-0.34,0.13c-0.06-0.05-0.12-0.09-0.16-0.16c-0.08-0.12-0.19-0.18-0.32-0.22
			c-0.53-0.18-1-0.07-1.44,0.43c-0.15,0.16-0.26,0.35-0.39,0.52c-0.32,0.41-0.56,0.87-0.87,1.29c-0.18,0.25-0.31,0.54-0.48,0.8
			c-0.34,0.52-0.66,1.04-0.99,1.57c-0.24,0.38-0.52,0.75-0.71,1.17c-0.02,0.05-0.06,0.1-0.09,0.14c-0.14,0.16-0.25,0.34-0.34,0.53
			c-0.03,0.06-0.07,0.12-0.11,0.17c-0.06,0.08-0.13,0.16-0.18,0.24c-0.21,0.4-0.49,0.75-0.7,1.15c-0.07,0.14-0.17,0.26-0.27,0.38
			c-0.11,0.12-0.19,0.13-0.32,0.03c-0.08-0.06-0.17-0.13-0.25-0.2c-0.66-0.59-1.33-1.18-1.99-1.77c-0.61-0.55-1.2-1.11-1.82-1.64
			c-0.63-0.53-1.23-1.09-1.86-1.62c-0.29-0.24-0.53-0.53-0.77-0.82c-0.12-0.14-0.19-0.31-0.21-0.49c-0.02-0.14-0.04-0.28-0.07-0.42
			c-0.05-0.21,0.01-0.42,0.04-0.63c0.01-0.11,0.04-0.22,0.06-0.33c0.02-0.11,0.06-0.21,0.13-0.28c0.07-0.07,0.1-0.15,0.14-0.24
			c0.14-0.33,0.28-0.66,0.47-0.97c0.04-0.06,0.07-0.12,0.1-0.18c0.56-1.16,1.11-2.33,1.64-3.5c0.02-0.05,0.04-0.09,0.07-0.13
			c0.17-0.31,0.32-0.62,0.45-0.94c0.18-0.44,0.4-0.86,0.6-1.29c0.11-0.22,0.22-0.45,0.32-0.68c0.18-0.44,0.4-0.86,0.63-1.27
			c0.12-0.22,0.3-0.4,0.48-0.57c0.15-0.15,0.35-0.23,0.55-0.3C39.55,8.58,39.77,8.54,40.05,8.52z"/>
		<path class="st0" d="M31.3,32.67c-0.37,0.05-0.7-0.08-1.02-0.25c-0.31-0.17-0.61-0.34-0.91-0.52c-0.24-0.15-0.49-0.27-0.74-0.4
			c-0.31-0.16-0.61-0.34-0.91-0.52c-0.17-0.1-0.35-0.22-0.55-0.28c-0.16-0.05-0.29-0.13-0.43-0.22c-0.18-0.1-0.35-0.22-0.54-0.29
			c-0.31-0.12-0.6-0.29-0.88-0.45c-0.77-0.43-1.55-0.83-2.33-1.24c-0.16-0.09-0.32-0.16-0.46-0.28c-0.33-0.28-0.64-0.59-0.77-1.03
			c-0.08-0.27-0.15-0.54-0.1-0.81c0.05-0.3,0.15-0.61,0.34-0.85c0.2-0.26,0.46-0.47,0.73-0.67c0.71-0.53,1.38-1.11,2.09-1.65
			c0.48-0.36,0.93-0.75,1.43-1.09c0.59-0.4,1.11-0.89,1.58-1.42c0.15-0.17,0.32-0.33,0.48-0.5c0.37-0.41,0.73-0.84,1.03-1.31
			c0.05-0.08,0.13-0.13,0.22-0.16c0.11-0.03,0.21-0.07,0.32-0.1c0.21-0.07,0.42-0.04,0.62,0.03c0.12,0.04,0.15,0.1,0.07,0.21
			c-0.1,0.13-0.2,0.26-0.31,0.37c-0.13,0.13-0.16,0.28-0.17,0.46c-0.02,0.27,0.04,0.49,0.2,0.72c0.19,0.27,0.41,0.5,0.65,0.72
			c0.12,0.11,0.28,0.18,0.41,0.29c0.34,0.25,0.69,0.49,1.04,0.74c0.9,0.64,1.79,1.29,2.7,1.92c0.63,0.45,1.23,0.93,1.88,1.35
			c0.13,0.08,0.24,0.17,0.36,0.27c0.1,0.08,0.1,0.11,0.04,0.22c-0.03,0.06-0.07,0.12-0.12,0.17c-0.29,0.31-0.51,0.66-0.77,0.99
			c-0.72,0.88-1.41,1.78-2.11,2.68c-0.51,0.64-1.03,1.27-1.51,1.93c-0.12,0.16-0.25,0.3-0.37,0.45c-0.17,0.21-0.4,0.34-0.63,0.46
			C31.68,32.69,31.49,32.66,31.3,32.67z"/>
		<path class="st0" d="M42.17,41.16c-0.12,0-0.33-0.07-0.53-0.13c-0.13-0.04-0.14-0.13-0.04-0.22c0.1-0.08,0.21-0.16,0.32-0.22
			c0.16-0.09,0.25-0.22,0.26-0.4c0.01-0.12,0.06-0.24,0.07-0.37c0.01-0.28-0.06-0.54-0.21-0.78c-0.2-0.32-0.43-0.61-0.69-0.88
			c-0.83-0.85-1.68-1.68-2.5-2.53c-0.42-0.43-0.82-0.87-1.25-1.29c-0.35-0.34-0.67-0.69-1.01-1.03c-0.13-0.13-0.29-0.22-0.4-0.37
			c-0.15-0.2-0.16-0.23,0-0.42c0.19-0.23,0.42-0.41,0.64-0.61c0.85-0.76,1.7-1.5,2.56-2.26c0.73-0.65,1.47-1.29,2.19-1.96
			c0.13-0.12,0.26-0.24,0.4-0.34c0.14-0.1,0.3-0.18,0.47-0.22c0.08-0.02,0.16-0.05,0.23-0.08c0.18-0.09,0.36-0.08,0.55-0.03
			c0.42,0.13,0.79,0.34,1.12,0.63c0.4,0.35,0.82,0.68,1.23,1.02c0.66,0.54,1.34,1.07,2.01,1.59c1,0.78,1.99,1.59,3.01,2.35
			c0.14,0.1,0.27,0.22,0.41,0.33c0.05,0.04,0.09,0.09,0.12,0.14c0.14,0.21,0.28,0.42,0.42,0.62c0.04,0.06,0.07,0.12,0.08,0.19
			c0.06,0.33,0.09,0.65,0.05,0.98c-0.05,0.38-0.22,0.67-0.48,0.93c-0.22,0.22-0.46,0.41-0.76,0.51c-0.04,0.01-0.08,0.03-0.12,0.06
			c-0.48,0.27-0.99,0.5-1.47,0.78c-0.46,0.26-0.94,0.48-1.39,0.76c-0.02,0.01-0.04,0.03-0.07,0.04c-0.45,0.18-0.85,0.45-1.29,0.63
			c-0.17,0.07-0.33,0.16-0.48,0.26c-0.04,0.02-0.07,0.05-0.11,0.07c-0.58,0.32-1.06,0.77-1.58,1.17c-0.36,0.28-0.69,0.59-1.04,0.89
			C42.7,41.09,42.5,41.16,42.17,41.16z"/>
		<path class="st0" d="M35.66,43.69c-0.38,0.52-0.8,1.01-1.19,1.52c-0.18,0.24-0.38,0.48-0.56,0.72c-0.29,0.41-0.64,0.77-0.97,1.15
			c-0.14,0.17-0.33,0.29-0.54,0.36c-0.18,0.06-0.36,0.11-0.54,0.17c-0.11,0.03-0.22,0.02-0.33-0.01c-0.17-0.05-0.35-0.1-0.52-0.15
			c-0.08-0.02-0.15-0.06-0.21-0.12c-0.22-0.23-0.43-0.47-0.54-0.77c-0.22-0.6-0.46-1.19-0.69-1.78c-0.03-0.08-0.07-0.16-0.12-0.23
			c-0.03-0.04-0.06-0.09-0.07-0.13c-0.08-0.33-0.25-0.64-0.33-0.97c-0.01-0.06-0.03-0.11-0.07-0.15c-0.13-0.15-0.18-0.33-0.19-0.52
			c-0.01-0.06-0.02-0.12-0.04-0.18c-0.17-0.37-0.3-0.76-0.46-1.15c-0.19-0.47-0.41-0.94-0.68-1.37c-0.23-0.37-0.45-0.73-0.68-1.1
			c-0.13-0.19-0.24-0.39-0.4-0.56c-0.16-0.18-0.24-0.39-0.22-0.64c0.01-0.18,0.02-0.36,0.05-0.54c0.02-0.11,0.03-0.26,0.18-0.28
			c0.12-0.02,0.2,0.09,0.23,0.19c0.08,0.28,0.28,0.42,0.52,0.54c0.19,0.1,0.38,0.12,0.57,0.04c0.34-0.14,0.65-0.33,0.91-0.58
			c0.61-0.56,1.21-1.13,1.81-1.69c0.08-0.08,0.16-0.16,0.23-0.25c0.07-0.09,0.14-0.18,0.23-0.25c0.92-0.81,1.75-1.71,2.65-2.54
			c0.1-0.09,0.2-0.19,0.29-0.29c0.19-0.18,0.36-0.17,0.52,0.03c0.14,0.17,0.29,0.34,0.37,0.56c0.02,0.05,0.04,0.09,0.08,0.13
			c0.36,0.41,0.59,0.91,0.92,1.34c0.43,0.56,0.79,1.17,1.2,1.74c0.52,0.73,1.02,1.48,1.53,2.21c0.08,0.12,0.12,0.25,0.16,0.39
			c0.13,0.45,0.11,0.9-0.04,1.34c-0.03,0.09-0.07,0.17-0.13,0.25c-0.28,0.4-0.6,0.77-0.93,1.12c-0.31,0.34-0.57,0.71-0.86,1.06
			c-0.06,0.07-0.12,0.14-0.18,0.21c-0.13,0.13-0.25,0.26-0.35,0.42c-0.07,0.11-0.18,0.19-0.27,0.29c-0.18,0.1-0.34,0.01-0.33-0.2
			c0.02-0.37,0.01-0.75,0.15-1.11c0.06-0.16,0.1-0.32,0.1-0.49c0-0.07,0.01-0.14,0.03-0.2c0.22-0.9,0.35-1.81,0.54-2.72
			c0.06-0.31,0.14-0.61,0.37-0.84c0.1-0.1,0.07-0.19-0.07-0.21c-0.31-0.03-0.62-0.02-0.94,0c-0.13,0.01-0.17,0.1-0.09,0.2
			c0.19,0.23,0.15,0.48,0.13,0.75c-0.04,0.53-0.23,1.04-0.28,1.56c-0.07,0.66-0.28,1.3-0.3,1.96c0,0.01,0,0.01,0,0.02
			c-0.03,0.11-0.04,0.24-0.18,0.26c-0.13,0.01-0.16-0.12-0.2-0.21c-0.11-0.26-0.17-0.53-0.19-0.8c-0.05-0.7-0.23-1.38-0.3-2.08
			c-0.03-0.3-0.1-0.6-0.1-0.91c0-0.19,0.04-0.37,0.16-0.53c0.11-0.14,0.07-0.21-0.11-0.23c-0.18-0.02-0.36,0.04-0.54,0.03
			c-0.4-0.01-0.8,0.02-1.2-0.03c-0.17-0.02-0.24,0.04-0.16,0.16c0.22,0.32,0.17,0.66,0.11,1c-0.15,0.76-0.2,1.54-0.38,2.29
			c-0.08,0.36-0.06,0.73-0.14,1.09c-0.02,0.1-0.01,0.27-0.15,0.27c-0.15,0.01-0.18-0.15-0.21-0.27c-0.11-0.45-0.2-0.9-0.25-1.36
			c-0.08-0.75-0.23-1.49-0.32-2.24c-0.04-0.32,0.05-0.56,0.27-0.78c0.03-0.03,0.1-0.06,0.08-0.12c-0.02-0.07-0.09-0.06-0.15-0.05
			c-0.63,0.07-1.26,0.01-1.89,0.03c-0.11,0-0.22-0.01-0.34-0.02c-0.04,0-0.08-0.01-0.1,0.03c-0.02,0.04,0.01,0.07,0.03,0.1
			c0.01,0.02,0.02,0.03,0.04,0.04c0.36,0.25,0.43,0.65,0.49,1.03c0.08,0.48,0.15,0.97,0.24,1.46c0.14,0.71,0.24,1.43,0.35,2.14
			c0.02,0.16,0.05,0.32,0.08,0.48c0.04,0.19,0.05,0.37-0.08,0.54c-0.07,0.1-0.03,0.16,0.09,0.18c0.06,0.01,0.11,0.01,0.17,0.01
			c0.52-0.05,1.03-0.05,1.55,0c0.07,0.01,0.14,0,0.21,0c0.21-0.01,0.24-0.06,0.14-0.24c-0.09-0.16-0.1-0.32-0.06-0.49
			c0.2-0.8,0.28-1.62,0.43-2.43c0.02-0.09,0.03-0.19,0.07-0.27c0.03-0.07,0.07-0.14,0.16-0.13c0.08,0,0.11,0.07,0.14,0.13
			c0.02,0.04,0.03,0.08,0.03,0.13c0.05,0.5,0.18,0.98,0.24,1.48c0.05,0.38,0.11,0.75,0.18,1.13c0.03,0.15,0.02,0.29-0.06,0.43
			c-0.1,0.17-0.06,0.24,0.14,0.25c0.33,0.02,0.66,0.03,0.99-0.01c0.29-0.03,0.57-0.04,0.86,0C35.57,43.49,35.7,43.51,35.66,43.69z"
			/>
		<path d="M35.66,43.69c0.01-0.09-0.03-0.14-0.12-0.15c-0.13-0.02-0.26-0.03-0.39-0.03c-0.49,0.01-0.99,0.01-1.48,0.02
			c-0.06,0-0.13,0-0.19-0.01c-0.16-0.03-0.2-0.12-0.11-0.25c0.01-0.01,0.02-0.02,0.02-0.03c0.09-0.1,0.12-0.21,0.09-0.35
			c-0.05-0.26-0.12-0.53-0.14-0.79c-0.05-0.64-0.25-1.25-0.29-1.89c0-0.06-0.03-0.12-0.05-0.18C33,40,32.98,39.96,32.94,39.95
			c-0.05-0.01-0.08,0.03-0.1,0.07c-0.05,0.09-0.07,0.19-0.08,0.29c-0.03,0.17-0.04,0.35-0.08,0.52c-0.12,0.51-0.15,1.04-0.26,1.55
			c-0.03,0.14-0.07,0.28-0.1,0.42c-0.04,0.17-0.03,0.34,0.1,0.47c0.05,0.05,0.08,0.11,0.04,0.19c-0.04,0.08-0.1,0.1-0.18,0.1
			c-0.31-0.02-0.62-0.02-0.94-0.02c-0.33,0-0.66,0-0.99,0.02c-0.05,0-0.1,0.01-0.15,0c-0.13-0.03-0.19-0.16-0.1-0.25
			c0.16-0.15,0.14-0.31,0.11-0.49c-0.13-0.75-0.25-1.5-0.37-2.25c-0.04-0.29-0.09-0.58-0.17-0.86c-0.07-0.23-0.07-0.48-0.1-0.72
			c-0.03-0.26-0.06-0.52-0.17-0.76c-0.01-0.02-0.02-0.05-0.02-0.07c-0.01-0.15-0.09-0.25-0.21-0.34c-0.09-0.06-0.17-0.13-0.22-0.22
			c-0.05-0.1-0.01-0.17,0.1-0.18c0.05,0,0.1,0.01,0.15,0.02c0.09,0.02,0.19,0.03,0.28,0.02c0.31-0.03,0.62-0.01,0.93-0.01
			c0.32,0,0.64,0,0.96-0.02c0.01,0,0.02,0,0.04,0c0.08,0,0.18-0.02,0.22,0.06c0.04,0.1-0.08,0.12-0.13,0.17
			c-0.22,0.18-0.32,0.41-0.28,0.69c0.06,0.41,0.1,0.83,0.16,1.24c0.06,0.37,0.16,0.73,0.17,1.11c0.02,0.45,0.15,0.88,0.24,1.32
			c0.02,0.1,0.05,0.19,0.13,0.26c0.07-0.03,0.07-0.1,0.09-0.15c0.08-0.28,0.07-0.57,0.11-0.85c0.02-0.17,0.04-0.34,0.08-0.5
			c0.11-0.37,0.12-0.75,0.18-1.13c0.05-0.33,0.11-0.65,0.17-0.98c0.03-0.16,0.04-0.32,0.06-0.48c0.02-0.15-0.02-0.3-0.1-0.43
			c-0.02-0.03-0.04-0.06-0.06-0.09c-0.04-0.06-0.1-0.11-0.06-0.18c0.04-0.08,0.12-0.07,0.2-0.07c0.6,0.04,1.2,0.02,1.8,0
			c0.09,0,0.2-0.04,0.25,0.07c0.06,0.11-0.03,0.18-0.09,0.26c-0.09,0.11-0.14,0.23-0.14,0.37c-0.01,0.33,0.07,0.66,0.1,0.99
			c0.04,0.49,0.17,0.97,0.23,1.46c0.04,0.33,0.06,0.66,0.13,0.98c0.04,0.17,0.08,0.34,0.15,0.5c0.03,0.07,0.05,0.16,0.14,0.15
			c0.07-0.01,0.08-0.1,0.09-0.17c0.05-0.25,0.05-0.51,0.09-0.76c0.05-0.33,0.16-0.66,0.19-0.99c0.03-0.27,0.05-0.55,0.13-0.81
			c0.13-0.43,0.16-0.88,0.22-1.33c0.02-0.14,0-0.26-0.11-0.36c-0.05-0.04-0.08-0.09-0.1-0.15c-0.04-0.1,0.01-0.17,0.11-0.2
			c0.04-0.01,0.07-0.01,0.11-0.01c0.29,0,0.59,0,0.88,0c0.03,0,0.06,0,0.09,0c0.16,0.03,0.22,0.16,0.1,0.26
			c-0.29,0.25-0.36,0.59-0.42,0.93c-0.09,0.47-0.2,0.93-0.26,1.4c-0.06,0.43-0.19,0.85-0.26,1.28c-0.01,0.08-0.02,0.16-0.02,0.24
			c0,0.12-0.02,0.24-0.07,0.35c-0.16,0.38-0.17,0.78-0.18,1.18c0,0.17,0.08,0.22,0.27,0.2C35.9,43.41,35.79,43.56,35.66,43.69z"/>
		<path d="M43.52,16.67c-0.04,0.05-0.08,0.08-0.13,0.09c-0.25,0.09-0.34,0.3-0.39,0.53c-0.03,0.11-0.04,0.23-0.04,0.35
			c0,0.52,0,1.05,0,1.57c0,0.14,0.02,0.27,0.06,0.4c0.06,0.16,0.14,0.29,0.29,0.38c0.05,0.03,0.11,0.08,0.09,0.15
			c-0.02,0.08-0.09,0.1-0.16,0.11c-0.04,0-0.09,0-0.13,0c-0.92-0.04-1.84-0.02-2.75-0.03c-0.55,0-1.07-0.1-1.58-0.28
			c-0.44-0.15-0.84-0.41-1.13-0.8c-0.07-0.1-0.15-0.2-0.23-0.3c-0.09-0.12-0.18-0.24-0.2-0.39c0-0.02-0.01-0.05-0.03-0.07
			c-0.13-0.18-0.18-0.4-0.22-0.61c-0.04-0.23-0.13-0.44-0.15-0.68c-0.02-0.26-0.01-0.51,0.05-0.76c0.05-0.19,0.11-0.38,0.14-0.58
			c0.02-0.11,0.1-0.19,0.14-0.28c0.18-0.39,0.47-0.7,0.82-0.95c0.14-0.1,0.28-0.19,0.44-0.24c0.01,0,0.03,0,0.04-0.01
			c0.33-0.24,0.72-0.21,1.09-0.28c0.47-0.1,0.94-0.03,1.41,0.04c0.34,0.05,0.68,0.06,1.03,0.05c0.05,0,0.1-0.01,0.15,0
			c0.15,0.01,0.2,0.05,0.22,0.2c0.04,0.37,0.08,0.75,0.11,1.12c0.01,0.11,0.03,0.22,0.06,0.33c0.01,0.05,0.04,0.12-0.02,0.15
			c-0.07,0.04-0.11-0.02-0.16-0.06c-0.11-0.12-0.21-0.25-0.29-0.39c-0.16-0.29-0.41-0.48-0.69-0.62c-0.35-0.17-0.73-0.32-1.13-0.22
			c-0.37,0.09-0.72,0.22-0.97,0.55c-0.35,0.47-0.55,0.99-0.54,1.58c0,0.07,0,0.14,0,0.21c0,0.78,0,0.78,0.27,1.51
			c0.15,0.4,0.4,0.74,0.75,0.98c0.4,0.26,0.83,0.33,1.28,0.13c0.11-0.05,0.17-0.13,0.18-0.24c0.05-0.33,0.11-0.65,0.07-0.99
			c-0.01-0.09,0-0.17,0-0.26c0.03-0.32,0.02-0.64-0.06-0.95c-0.04-0.16-0.11-0.27-0.28-0.31c-0.08-0.02-0.18-0.05-0.16-0.15
			c0.02-0.09,0.11-0.11,0.2-0.1c0.53,0.02,1.06-0.01,1.59,0.02c0.19,0.01,0.39-0.02,0.58-0.02C43.3,16.55,43.43,16.56,43.52,16.67z"
			/>
		<path d="M29.37,28.25c-0.27,0.02-0.48,0.02-0.7,0.01c-0.37-0.03-0.74,0.01-1.1,0c-0.09,0-0.17,0.03-0.26,0.04
			c-0.07,0.01-0.15,0.03-0.18-0.06c-0.04-0.08-0.01-0.16,0.06-0.22c0.05-0.05,0.1-0.09,0.13-0.16c0.05-0.09,0.07-0.18,0.08-0.29
			c0.07-1.57,0.05-3.13,0.01-4.7c0-0.19-0.06-0.34-0.24-0.43c-0.06-0.03-0.1-0.08-0.09-0.15c0.01-0.08,0.08-0.1,0.15-0.12
			c0.07-0.02,0.14-0.02,0.2-0.02c0.59,0.03,1.19,0.02,1.78-0.01c0.02,0,0.05,0,0.07,0c0.08,0,0.16-0.01,0.2,0.07
			c0.04,0.08-0.01,0.15-0.06,0.21c-0.19,0.22-0.24,0.48-0.24,0.77c0,0.57-0.02,1.15-0.01,1.72c0,0.47,0.01,0.94,0.02,1.4
			c0,0.26-0.04,0.52,0,0.79c0.01,0.09,0.03,0.18,0.06,0.27c0.07,0.2,0.2,0.29,0.41,0.32c0.55,0.08,1-0.11,1.41-0.46
			c0.24-0.2,0.47-0.42,0.63-0.69c0.05-0.08,0.08-0.17,0.12-0.25c0.02-0.04,0.03-0.08,0.06-0.12c0.03-0.03,0.06-0.07,0.11-0.05
			c0.03,0.01,0.05,0.05,0.05,0.09c0,0.13,0.02,0.26-0.03,0.39c-0.07,0.18-0.08,0.38-0.18,0.55c-0.02,0.04-0.03,0.08-0.04,0.13
			c-0.03,0.31-0.17,0.6-0.24,0.9c-0.05,0.2-0.12,0.22-0.29,0.11c-0.06-0.04-0.12-0.06-0.19-0.06C30.48,28.26,29.9,28.27,29.37,28.25
			z"/>
		<path d="M45.66,30.4c0.14,0.01,0.29,0.02,0.43,0.03c0.04,0,0.09,0,0.13,0.02c0.33,0.12,0.65,0.22,0.96,0.39
			c0.55,0.3,0.87,0.79,1.08,1.34c0.18,0.46,0.3,0.94,0.31,1.44c0,0.3-0.04,0.58-0.13,0.86c-0.02,0.06-0.04,0.12-0.05,0.18
			c-0.08,0.55-0.39,0.96-0.77,1.34c-0.33,0.32-0.73,0.51-1.17,0.64c-0.43,0.13-0.86,0.21-1.31,0.18c-0.16-0.01-0.32-0.03-0.48-0.07
			c-0.22-0.06-0.44-0.1-0.65-0.18c-0.66-0.24-1.16-0.67-1.48-1.3c-0.1-0.2-0.18-0.41-0.27-0.62c-0.04-0.08-0.05-0.17-0.06-0.25
			c-0.06-0.52-0.08-1.03-0.01-1.55c0.04-0.33,0.18-0.62,0.33-0.91c0.12-0.23,0.28-0.43,0.45-0.62c0.09-0.1,0.2-0.19,0.31-0.27
			c0.24-0.17,0.48-0.34,0.77-0.42c0.07-0.02,0.14-0.05,0.21-0.08c0.1-0.05,0.21-0.09,0.32-0.09C44.95,30.42,45.31,30.37,45.66,30.4z
			"/>
		<path class="st0" d="M46.67,33.91c0,0.31-0.01,0.62-0.04,0.93c-0.01,0.15-0.11,0.26-0.15,0.4c-0.1,0.38-0.37,0.6-0.69,0.77
			c-0.21,0.11-0.42,0.1-0.63-0.01c-0.46-0.24-0.73-0.62-0.9-1.1c-0.07-0.2-0.12-0.4-0.14-0.6c-0.02-0.14-0.04-0.28-0.08-0.42
			c-0.06-0.24-0.06-0.48-0.04-0.73c0.03-0.34,0.07-0.68,0.14-1.02c0.08-0.41,0.33-0.73,0.68-0.92c0.26-0.14,0.57-0.17,0.85,0.04
			c0.26,0.2,0.48,0.44,0.65,0.72c0.08,0.13,0.13,0.27,0.15,0.42c0,0.03,0,0.06,0.02,0.09c0.18,0.4,0.17,0.83,0.18,1.25
			C46.67,33.78,46.67,33.84,46.67,33.91z"/>
	</g>
</g>
<line class="st22" x1="80.87" y1="4.13" x2="80.87" y2="54.68"/>
<g>
	<path class="st21" d="M107.29,14.14h-7V11.7c0-1.54-0.07-2.51-0.2-2.89c-0.13-0.39-0.45-0.58-0.95-0.58c-0.43,0-0.73,0.17-0.88,0.5
		c-0.16,0.33-0.23,1.19-0.23,2.56v12.93c0,1.21,0.08,2,0.23,2.39c0.15,0.38,0.47,0.57,0.93,0.57c0.51,0,0.86-0.22,1.04-0.65
		s0.27-1.28,0.27-2.53V20.8h-1.41v-4.09h8.2v14.46h-4.4l-0.65-1.93c-0.48,0.83-1.08,1.46-1.81,1.87c-0.73,0.42-1.58,0.62-2.57,0.62
		c-1.18,0-2.28-0.29-3.31-0.86s-1.81-1.28-2.34-2.12c-0.53-0.84-0.87-1.73-1-2.65c-0.13-0.93-0.2-2.31-0.2-4.17v-8
		c0-2.57,0.14-4.44,0.42-5.61c0.28-1.16,1.07-2.23,2.39-3.2c1.31-0.97,3.01-1.46,5.1-1.46c2.05,0,3.75,0.42,5.11,1.26
		c1.35,0.84,2.23,1.84,2.65,3c0.41,1.16,0.62,2.84,0.62,5.05V14.14z"/>
	<path class="st21" d="M123.82,4.23v21.55h4.26v5.39h-11.26V4.23H123.82z"/>
	<path class="st21" d="M152.08,20c0,2.71-0.06,4.62-0.19,5.75c-0.13,1.13-0.53,2.15-1.2,3.09c-0.67,0.93-1.58,1.65-2.72,2.15
		s-2.47,0.75-3.99,0.75c-1.44,0-2.74-0.24-3.89-0.71c-1.15-0.47-2.07-1.18-2.77-2.12s-1.11-1.97-1.25-3.08
		c-0.13-1.11-0.2-3.05-0.2-5.82v-4.61c0-2.71,0.06-4.62,0.19-5.75c0.13-1.13,0.53-2.15,1.2-3.09c0.67-0.93,1.58-1.65,2.72-2.15
		c1.14-0.5,2.47-0.75,3.99-0.75c1.44,0,2.74,0.24,3.88,0.71c1.15,0.47,2.07,1.18,2.77,2.12c0.7,0.94,1.12,1.97,1.25,3.08
		c0.13,1.11,0.2,3.05,0.2,5.82V20z M145.08,11.15c0-1.25-0.07-2.05-0.21-2.4c-0.14-0.35-0.42-0.52-0.86-0.52
		c-0.37,0-0.65,0.14-0.84,0.42s-0.29,1.12-0.29,2.5v12.58c0,1.56,0.06,2.53,0.19,2.9c0.13,0.37,0.42,0.55,0.89,0.55
		c0.48,0,0.78-0.21,0.92-0.63c0.13-0.42,0.2-1.42,0.2-3.01V11.15z"/>
	<path class="st21" d="M187.88,4.23l-3.12,26.94h-8.75c-0.8-4.14-1.51-8.85-2.12-14.13c-0.28,2.26-0.93,6.97-1.95,14.13h-8.7
		l-3.14-26.94h6.8l0.74,9.4l0.72,9.09c0.26-4.7,0.9-10.86,1.94-18.48h7.27c0.1,0.79,0.35,3.75,0.76,8.88l0.77,10.25
		c0.4-6.52,1.05-12.9,1.96-19.13H187.88z"/>
	<path class="st21" d="M212.18,4.23v26.94h-7V19.85h-2.1v11.31h-7V4.23h7v9.63h2.1V4.23H212.18z"/>
	<path class="st21" d="M228.81,4.23v26.94h-7V4.23H228.81z"/>
	<path class="st21" d="M252.54,4.23v5.39h-4.16v21.55h-7V9.62h-4.14V4.23H252.54z"/>
	<path class="st21" d="M260.96,4.23h11.68v5.39h-4.67v5.11h4.38v5.12h-4.38v5.92h5.14v5.39h-12.15V4.23z"/>
</g>
<text transform="matrix(1 0 0 1 89.9878 51.043)" class="st23 st24 st25 st26">INDUSTRIES</text>
</svg>
