<?xml version="1.0" encoding="utf-8"?>
<!-- Generator: Adobe Illustrator 23.0.5, SVG Export Plug-In . SVG Version: 6.00 Build 0)  -->
<svg version="1.1" id="Layer_1" xmlns="http://www.w3.org/2000/svg" xmlns:xlink="http://www.w3.org/1999/xlink" x="0px" y="0px"
	 viewBox="0 0 300 122" style="enable-background:new 0 0 300 122;" xml:space="preserve">
<style type="text/css">
	.st0{fill:#FFFFFF;}
	.st1{fill:#D6D5D4;}
	.st2{fill:#C8C6C6;}
	.st3{fill:#DBDAD9;}
	.st4{fill:#7D7B7B;}
	.st5{fill:#DFDEDE;}
	.st6{fill:#898787;}
	.st7{fill:#8F8D8D;}
	.st8{fill:#767474;}
	.st9{fill:#BAB7B7;}
	.st10{fill:#ADAAA9;}
	.st11{fill:#918F8F;}
	.st12{fill:#9B9898;}
	.st13{fill:#ADAAAA;}
	.st14{fill:#CAC8C8;}
	.st15{fill:#B3B0B0;}
	.st16{fill:#D7D5D5;}
	.st17{fill:#DDDCDC;}
	.st18{fill:#908E8E;}
	.st19{fill:#B8B6B6;}
	.st20{fill:#CCCACA;}
	.st21{fill:#EC1D24;}
	.st22{fill:none;stroke:#EC1D24;stroke-width:1.0928;stroke-miterlimit:10;}
	.st23{fill:#3A3A3A;}
</style>
<g>
	<path d="M66.05,25.15c0,23.62,0,47.25,0,70.87c-0.1,0.89-0.56,1.62-1.08,2.3c-0.93,1.22-2.15,2.03-3.64,2.42
		c-0.4,0.1-0.8,0.1-1.21,0.12c-0.15,0-0.3,0-0.46,0c-0.33,0-0.65,0-0.98,0c-0.35,0-0.7,0-1.05,0c-0.18,0-0.37,0-0.55,0
		c-0.18,0-0.37,0-0.55,0c-0.55,0-1.09,0-1.64,0c-0.41,0-0.82,0-1.23,0c-0.18,0-0.37,0-0.55,0c-0.11,0-0.23,0-0.34,0
		c-10.15,0-20.31,0-30.46,0c-0.12,0-0.23,0-0.35,0c-1.37,0-2.75,0-4.12,0c-0.43,0-0.86,0-1.3,0c-0.16,0-0.33,0-0.49,0
		c-0.16,0-0.31,0-0.47,0c-0.12,0-0.23,0-0.35,0c-1.6,0.01-2.94-0.59-4.11-1.64c-0.71-0.64-1.26-1.4-1.64-2.27
		c-0.28-0.64-0.47-1.32-0.46-2.04c0-22.94,0-45.89,0-68.83c0.16-1.28,0.6-2.42,1.47-3.4c1.25-1.41,2.86-2.08,4.69-2.3
		c0.12-0.01,0.24-0.01,0.36-0.01c14.75,0,29.5-0.02,44.25,0.02c2.73,0.01,5.06,1.54,6.1,4.04C65.99,24.67,65.98,24.91,66.05,25.15z"
		/>
	<path class="st0" d="M66.05,25.15c-0.1-0.12-0.09-0.27-0.14-0.4c-0.81-2.16-2.37-3.47-4.58-4.05c-0.68-0.18-1.37-0.25-2.08-0.25
		c-14.57,0.01-29.15,0.01-43.72,0.01c-2.73,0.21-4.84,1.38-6,3.95c-0.23,0.51-0.34,1.07-0.45,1.62c-0.06,0.37,0,0.74-0.03,1.1
		C9.03,27.18,9,27.19,8.96,27.17c0-2.3,0-4.59,0-6.89c19.03,0,38.06,0,57.09,0C66.05,21.9,66.05,23.53,66.05,25.15z"/>
	<path class="st0" d="M9.08,95.01c0.05,0.63,0.19,1.24,0.44,1.81c0.62,1.44,1.62,2.56,3.02,3.3c0.8,0.42,1.66,0.63,2.55,0.7
		c0.04,0,0.08,0.01,0.12,0.02c0.02,0.01,0.03,0.02,0.02,0.03c-0.01,0.01-0.01,0.02-0.02,0.02c-2.07,0-4.15,0-6.24,0
		c0-2.14,0-4.28,0-6.42c0.03-0.02,0.06-0.02,0.08,0.01C9.07,94.66,9.02,94.84,9.08,95.01z"/>
	<path class="st0" d="M60.17,100.84c1.22-0.08,2.33-0.47,3.32-1.19c1.14-0.83,1.95-1.91,2.44-3.24c0.05-0.13,0.02-0.27,0.12-0.38
		c0,1.62,0,3.25,0,4.87c-1.96,0-3.92,0-5.88,0c-0.02-0.01-0.03-0.02-0.02-0.04C60.16,100.85,60.17,100.84,60.17,100.84z"/>
	<path class="st1" d="M8.96,84.73c0-17.92,0-35.84,0-53.76c0.05-0.02,0.07,0,0.09,0.04c0.01,0.09,0,0.18,0,0.27
		c0,17.71,0,35.43,0,53.14c0,0.09,0,0.18,0,0.27C9.04,84.74,9.01,84.75,8.96,84.73z"/>
	<path class="st2" d="M22.28,100.84c0.13,0,0.26-0.01,0.39-0.01c9.94,0,19.88,0,29.82,0c0.11,0,0.22,0.01,0.33,0.01
		c0.02,0.01,0.02,0.02,0.02,0.03c-0.01,0.01-0.01,0.02-0.02,0.02c-10.18,0-20.36,0-30.53,0c-0.02-0.01-0.02-0.02-0.02-0.03
		C22.26,100.85,22.27,100.84,22.28,100.84z"/>
	<path class="st3" d="M8.96,84.73c0.01,0,0.03,0,0.04,0c0.08,0.07,0.04,0.17,0.04,0.25c0,3.08,0,6.17,0,9.25
		c0,0.08,0.04,0.18-0.04,0.25c-0.02,0-0.03,0-0.04-0.01C8.96,91.23,8.96,87.98,8.96,84.73z"/>
	<path class="st4" d="M17.81,100.84c0.53,0,1.06-0.01,1.59-0.01c0.86,0,1.71,0.01,2.57,0.01c0.02,0.01,0.02,0.02,0.02,0.03
		c-0.01,0.01-0.01,0.02-0.02,0.02c-1.39,0-2.77,0-4.16,0c-0.02-0.01-0.03-0.02-0.02-0.03C17.8,100.85,17.81,100.84,17.81,100.84z"/>
	<path class="st5" d="M9.01,30.97c-0.01,0-0.03,0-0.04,0c0-1.27,0-2.53,0-3.8c0.01-0.01,0.03-0.01,0.04-0.01
		c0.06,0.04,0.05,0.1,0.05,0.16c0,1.16,0,2.32,0,3.49C9.05,30.86,9.07,30.93,9.01,30.97z"/>
	<path class="st6" d="M54.89,100.84c0.55-0.01,1.11-0.02,1.66,0c0.02,0.01,0.02,0.02,0.02,0.03c-0.01,0.01-0.01,0.02-0.02,0.02
		c-0.55,0-1.11,0-1.66,0c-0.02-0.01-0.03-0.02-0.02-0.03C54.87,100.85,54.88,100.84,54.89,100.84z"/>
	<path class="st7" d="M17.81,100.84c0,0.02,0,0.03,0,0.05c-0.44,0-0.87,0-1.31,0c-0.02-0.01-0.03-0.02-0.02-0.03
		c0.01-0.01,0.01-0.02,0.02-0.02C16.94,100.82,17.38,100.83,17.81,100.84z"/>
	<path class="st8" d="M54.89,100.84c0,0.02,0,0.03,0,0.05c-0.42,0-0.83,0-1.25,0c-0.02-0.01-0.03-0.02-0.02-0.03
		c0.01-0.01,0.01-0.02,0.02-0.02C54.05,100.84,54.47,100.84,54.89,100.84z"/>
	<path class="st9" d="M57.62,100.84c0.36-0.02,0.71-0.02,1.07,0c0.02,0.01,0.03,0.02,0.02,0.03c-0.01,0.01-0.01,0.02-0.02,0.02
		c-0.36,0-0.71,0-1.07,0c-0.02-0.01-0.03-0.02-0.02-0.03C57.6,100.85,57.61,100.84,57.62,100.84z"/>
	<path class="st10" d="M58.69,100.89c0-0.02,0-0.03,0-0.05c0.34,0,0.68,0,1.01,0c0.02,0.01,0.02,0.02,0.02,0.03
		c-0.01,0.01-0.01,0.02-0.02,0.02C59.36,100.89,59.02,100.89,58.69,100.89z"/>
	<path class="st11" d="M53.63,100.84c0,0.02,0,0.03,0,0.05c-0.18,0-0.36,0-0.53,0c-0.02-0.01-0.03-0.02-0.02-0.03
		c0.01-0.01,0.01-0.02,0.02-0.02C53.28,100.84,53.46,100.84,53.63,100.84z"/>
	<path class="st12" d="M56.55,100.89c0-0.02,0-0.03,0-0.05c0.18,0,0.36,0,0.53,0c0.02,0.01,0.02,0.02,0.02,0.03
		c-0.01,0.01-0.01,0.02-0.02,0.02C56.9,100.89,56.73,100.89,56.55,100.89z"/>
	<path class="st13" d="M57.08,100.89c0-0.02,0-0.03,0-0.05c0.18-0.01,0.36-0.02,0.53,0c0,0.02,0,0.03,0,0.05
		C57.44,100.89,57.26,100.89,57.08,100.89z"/>
	<path class="st14" d="M15.56,100.84c0.16-0.02,0.32-0.01,0.47,0c0.02,0.01,0.03,0.02,0.02,0.03c-0.01,0.01-0.01,0.02-0.02,0.02
		c-0.16,0-0.32,0-0.48,0c-0.02-0.01-0.03-0.02-0.02-0.03C15.54,100.85,15.55,100.84,15.56,100.84z"/>
	<path class="st15" d="M16.03,100.89c0-0.02,0-0.03,0-0.05c0.16-0.02,0.32-0.01,0.47,0c0,0.02,0,0.03,0,0.05
		C16.35,100.89,16.19,100.89,16.03,100.89z"/>
	<path class="st16" d="M59.7,100.89c0-0.02,0-0.03,0-0.05c0.16-0.01,0.32-0.02,0.47,0c0,0.02,0,0.04,0,0.05
		C60.01,100.89,59.85,100.89,59.7,100.89z"/>
	<path class="st17" d="M15.56,100.84c0,0.02,0,0.03,0,0.05c-0.12,0-0.24,0-0.36,0c0-0.02,0-0.03,0-0.05
		C15.32,100.82,15.44,100.83,15.56,100.84z"/>
	<path class="st18" d="M21.97,100.89c0-0.02,0-0.03,0-0.05c0.1,0,0.2,0,0.3,0c0,0.02,0,0.03,0,0.05
		C22.17,100.89,22.07,100.89,21.97,100.89z"/>
	<path class="st19" d="M53.1,100.84c0,0.02,0,0.03,0,0.05c-0.1,0-0.2,0-0.3,0c0-0.02,0-0.03,0-0.05
		C52.9,100.84,53,100.84,53.1,100.84z"/>
	<path class="st0" d="M10.36,60.38c0-10.67,0-21.34,0-32.02c0-0.6,0-1.21,0.03-1.81c0.04-0.9,0.27-1.73,0.82-2.46
		c0.02-0.02,0.04-0.05,0.05-0.07c0.26-0.63,0.76-1.06,1.3-1.44c0.5-0.35,1.05-0.59,1.67-0.72c0.62-0.13,1.24-0.14,1.86-0.14
		c11.88-0.04,23.76-0.01,35.64-0.02c2.8,0,5.6,0,8.41,0c1.27,0,2.41,0.38,3.37,1.25c0.5,0.45,0.9,0.97,1.19,1.58
		c0.19,0.41,0.43,0.8,0.46,1.27c0.05,0.68,0.11,1.36,0.11,2.04c0.01,1.33-0.03,2.65-0.03,3.98c0.06,12.97,0,25.94,0.02,38.91
		c0,0.56-0.03,1.13-0.03,1.69c0.07,6.82,0.01,13.64,0.03,20.46c0,0.91-0.04,1.82-0.15,2.73c-0.03,0.21-0.07,0.41-0.19,0.58
		c-0.03,0.05-0.06,0.1-0.08,0.16c-0.26,0.77-0.74,1.39-1.33,1.93c-0.54,0.48-1.14,0.88-1.85,1.1c-0.3,0.09-0.59,0.16-0.9,0.16
		c-2.14,0.01-4.28,0.03-6.41,0.03c-11.41,0-22.83,0-34.24,0c-1.71,0-3.43-0.02-5.14-0.03c-0.35,0-0.69-0.05-1.01-0.19
		c-0.03-0.01-0.05-0.03-0.08-0.03c-0.92-0.25-1.64-0.8-2.24-1.52c-0.29-0.35-0.52-0.74-0.72-1.15c-0.07-0.14-0.12-0.29-0.22-0.42
		c-0.07-0.09-0.11-0.19-0.11-0.3c-0.03-0.47-0.18-0.93-0.2-1.41c-0.01-0.2-0.02-0.4-0.02-0.59c0-10.86,0-21.72,0-32.58
		C10.36,61.01,10.36,60.7,10.36,60.38z"/>
	<path class="st20" d="M9.01,30.97c0.02-1.27,0.02-2.54,0-3.81c0-0.27,0-0.54,0.01-0.81c0-0.1-0.02-0.22,0.06-0.31
		c0,1.2-0.01,2.39-0.01,3.59c0,18.39,0,36.78,0,55.17c0,3.14,0,6.27,0,9.41c0,0.27,0.05,0.53,0.01,0.8
		c-0.09-0.17-0.03-0.35-0.07-0.52c0-0.08,0.01-0.16,0.01-0.24c0-3.09,0-6.19,0-9.28c0-0.08-0.01-0.16-0.01-0.24
		c0-0.12,0.01-0.24,0.01-0.36c0-17.69,0-35.37,0-53.06C9.02,31.21,9.01,31.09,9.01,30.97z"/>
	<path class="st21" d="M12.63,60.71c0-2.04,0-3.99,0-5.94c0-8.01,0-16.02,0-24.03c0-0.46-0.01-0.92,0.07-1.36
		c0.1-0.55,0.19-1.11,0.48-1.61c0.25-0.44,0.48-0.88,0.77-1.3c0.25-0.37,0.56-0.69,0.94-0.93c0.29-0.18,0.55-0.38,0.83-0.58
		c0.13-0.09,0.27-0.16,0.42-0.21c0.9-0.29,1.82-0.4,2.77-0.4c10.15,0,20.3-0.01,30.44-0.02c2.65,0,5.31,0,7.96,0.03
		c1.16,0.01,2.18,0.34,3.14,0.99c0.72,0.49,1.26,1.1,1.67,1.85c0.11,0.19,0.21,0.38,0.32,0.57c0.13,0.22,0.2,0.45,0.25,0.69
		c0.2,0.95,0.28,1.91,0.28,2.89c-0.01,9.73-0.01,19.46-0.01,29.2c0,10.11,0,20.22-0.01,30.32c0,1.03-0.2,2.03-0.67,2.95
		c-0.65,1.29-1.67,2.19-2.99,2.75c-0.31,0.13-0.64,0.2-0.98,0.22c-0.46,0.03-0.93,0.06-1.39,0.06c-9.52,0.09-19.05,0.04-28.57,0.05
		c-3.09,0-6.18,0.01-9.27,0c-0.62,0-1.25-0.01-1.87-0.1c-0.28-0.04-0.54-0.12-0.8-0.21c-1-0.36-1.82-0.97-2.5-1.79
		c-0.19-0.23-0.36-0.47-0.49-0.74c-0.03-0.06-0.05-0.13-0.09-0.19c-0.39-0.63-0.53-1.34-0.67-2.04c-0.05-0.24-0.05-0.47-0.05-0.71
		c0-4.41,0-8.81-0.01-13.22c0-4.84,0-9.68,0-14.52C12.63,62.45,12.58,61.53,12.63,60.71z"/>
	<path class="st0" d="M42.86,28.39c0.22,0,0.52,0.07,0.81,0.18c0.5,0.19,0.98,0.41,1.29,0.89c0.21,0.31,0.43,0.62,0.65,0.92
		c0.43,0.58,0.81,1.19,1.27,1.75c0.04,0.05,0.09,0.1,0.13,0.16c0.72,1.17,1.55,2.27,2.31,3.41c0.5,0.75,1.04,1.47,1.51,2.24
		c0.22,0.35,0.5,0.63,0.76,0.94c0.41,0.49,0.85,0.96,1.29,1.43c0.73,0.77,1.49,1.51,2.33,2.15c0.5,0.38,0.71,0.88,0.79,1.46
		c0.03,0.25,0.03,0.49-0.01,0.74c-0.06,0.32-0.28,0.41-0.53,0.21c-0.09-0.07-0.19-0.15-0.25-0.25c-0.12-0.18-0.3-0.28-0.5-0.35
		c-0.84-0.28-1.59-0.11-2.29,0.67c-0.23,0.26-0.41,0.56-0.62,0.83c-0.51,0.65-0.89,1.38-1.38,2.04c-0.29,0.39-0.5,0.85-0.76,1.27
		c-0.53,0.82-1.05,1.65-1.57,2.48c-0.38,0.61-0.82,1.19-1.12,1.85c-0.04,0.08-0.09,0.16-0.15,0.22c-0.22,0.26-0.4,0.54-0.54,0.85
		c-0.05,0.1-0.11,0.19-0.18,0.27c-0.1,0.12-0.21,0.25-0.28,0.38c-0.33,0.63-0.78,1.19-1.1,1.83c-0.11,0.22-0.27,0.42-0.43,0.6
		c-0.17,0.2-0.29,0.21-0.51,0.05c-0.13-0.1-0.26-0.21-0.39-0.32c-1.05-0.93-2.1-1.87-3.15-2.8c-0.97-0.86-1.91-1.76-2.89-2.6
		c-0.99-0.85-1.95-1.73-2.95-2.57c-0.46-0.39-0.84-0.84-1.22-1.29c-0.19-0.22-0.3-0.48-0.34-0.78c-0.03-0.23-0.07-0.45-0.12-0.67
		c-0.08-0.34,0.02-0.67,0.06-1c0.02-0.18,0.07-0.35,0.09-0.53c0.03-0.17,0.09-0.33,0.21-0.45c0.11-0.11,0.16-0.24,0.22-0.38
		c0.22-0.53,0.45-1.05,0.75-1.54c0.06-0.09,0.11-0.19,0.16-0.29c0.89-1.84,1.76-3.69,2.6-5.55c0.03-0.07,0.07-0.14,0.1-0.21
		c0.27-0.48,0.51-0.98,0.71-1.5c0.28-0.7,0.63-1.36,0.96-2.04c0.17-0.35,0.35-0.71,0.5-1.07c0.29-0.69,0.63-1.37,1-2.02
		c0.19-0.35,0.48-0.63,0.76-0.91c0.24-0.24,0.56-0.37,0.88-0.48C42.06,28.49,42.41,28.43,42.86,28.39z"/>
	<path class="st0" d="M29,66.66c-0.59,0.07-1.1-0.12-1.61-0.39c-0.49-0.26-0.97-0.53-1.44-0.83c-0.37-0.24-0.78-0.43-1.17-0.64
		c-0.49-0.26-0.97-0.53-1.44-0.82c-0.28-0.16-0.56-0.34-0.87-0.44c-0.25-0.08-0.46-0.21-0.68-0.34c-0.28-0.17-0.56-0.34-0.86-0.46
		c-0.49-0.2-0.94-0.45-1.4-0.71c-1.22-0.68-2.46-1.31-3.69-1.97c-0.25-0.14-0.51-0.26-0.73-0.45c-0.53-0.45-1.02-0.93-1.22-1.63
		c-0.13-0.42-0.23-0.86-0.16-1.28c0.08-0.48,0.24-0.97,0.55-1.35c0.32-0.41,0.73-0.75,1.15-1.07c1.13-0.83,2.19-1.76,3.31-2.61
		c0.76-0.57,1.48-1.2,2.26-1.73c0.94-0.64,1.76-1.41,2.51-2.26c0.24-0.27,0.51-0.53,0.75-0.8c0.59-0.65,1.15-1.33,1.63-2.07
		c0.09-0.13,0.21-0.21,0.35-0.25c0.17-0.05,0.34-0.1,0.51-0.16c0.34-0.11,0.67-0.06,0.99,0.05c0.2,0.07,0.23,0.16,0.11,0.33
		c-0.15,0.21-0.31,0.41-0.49,0.59c-0.2,0.21-0.26,0.45-0.27,0.73c-0.03,0.42,0.07,0.78,0.31,1.14c0.29,0.43,0.65,0.79,1.03,1.15
		c0.19,0.18,0.44,0.29,0.66,0.45c0.54,0.4,1.09,0.78,1.64,1.17c1.43,1.02,2.84,2.04,4.27,3.05c1,0.71,1.96,1.48,2.99,2.15
		c0.2,0.13,0.39,0.28,0.57,0.43c0.15,0.12,0.16,0.18,0.06,0.35c-0.05,0.09-0.11,0.19-0.19,0.27c-0.46,0.48-0.81,1.05-1.22,1.56
		c-1.14,1.4-2.23,2.83-3.34,4.24c-0.8,1.02-1.63,2.02-2.4,3.06c-0.18,0.25-0.39,0.47-0.59,0.71c-0.27,0.33-0.63,0.53-1,0.73
		C29.6,66.7,29.29,66.64,29,66.66z"/>
	<path class="st0" d="M46.21,80.12c-0.19,0-0.52-0.11-0.85-0.21c-0.2-0.06-0.23-0.21-0.06-0.35c0.16-0.13,0.33-0.25,0.51-0.35
		c0.25-0.15,0.4-0.34,0.41-0.64c0.01-0.2,0.1-0.38,0.11-0.58c0.01-0.45-0.1-0.86-0.34-1.24c-0.32-0.5-0.68-0.97-1.1-1.4
		c-1.31-1.35-2.66-2.66-3.97-4.01c-0.66-0.68-1.31-1.38-1.99-2.04c-0.55-0.53-1.06-1.09-1.59-1.64c-0.2-0.2-0.45-0.35-0.63-0.58
		c-0.24-0.31-0.25-0.36,0-0.66c0.3-0.36,0.66-0.66,1.01-0.96c1.35-1.2,2.7-2.38,4.05-3.58c1.16-1.03,2.34-2.05,3.47-3.11
		c0.2-0.19,0.41-0.38,0.63-0.54c0.23-0.16,0.47-0.29,0.75-0.35c0.12-0.03,0.25-0.07,0.36-0.13c0.28-0.14,0.57-0.13,0.87-0.04
		c0.66,0.21,1.26,0.54,1.77,0.99c0.63,0.56,1.29,1.08,1.94,1.61c1.05,0.86,2.12,1.69,3.19,2.53c1.59,1.24,3.15,2.52,4.77,3.72
		c0.22,0.16,0.43,0.35,0.65,0.52c0.08,0.06,0.14,0.14,0.2,0.22c0.22,0.33,0.44,0.66,0.66,0.99c0.06,0.09,0.11,0.19,0.13,0.3
		c0.1,0.52,0.14,1.03,0.08,1.56c-0.07,0.6-0.35,1.07-0.75,1.47c-0.34,0.34-0.73,0.64-1.2,0.8c-0.07,0.02-0.13,0.05-0.19,0.09
		c-0.77,0.43-1.57,0.79-2.33,1.23c-0.73,0.42-1.5,0.77-2.21,1.21c-0.03,0.02-0.07,0.04-0.1,0.06c-0.71,0.28-1.34,0.71-2.05,1
		c-0.27,0.11-0.52,0.25-0.75,0.41c-0.06,0.04-0.11,0.08-0.17,0.12c-0.91,0.51-1.67,1.23-2.5,1.86c-0.57,0.44-1.09,0.94-1.65,1.4
		C47.05,80.01,46.73,80.12,46.21,80.12z"/>
	<path class="st0" d="M35.89,84.14c-0.61,0.82-1.27,1.6-1.88,2.41c-0.29,0.39-0.61,0.75-0.89,1.15c-0.46,0.65-1.02,1.21-1.53,1.82
		c-0.23,0.27-0.52,0.45-0.86,0.57c-0.28,0.1-0.56,0.18-0.85,0.26c-0.18,0.05-0.35,0.03-0.53-0.02c-0.28-0.08-0.55-0.16-0.83-0.23
		c-0.13-0.03-0.24-0.09-0.33-0.19c-0.35-0.37-0.68-0.74-0.86-1.23c-0.35-0.94-0.73-1.88-1.1-2.82c-0.05-0.13-0.11-0.25-0.19-0.37
		c-0.04-0.07-0.09-0.14-0.11-0.21c-0.12-0.53-0.4-1.01-0.52-1.54c-0.02-0.09-0.05-0.17-0.11-0.24c-0.21-0.23-0.28-0.52-0.31-0.82
		c-0.01-0.1-0.02-0.2-0.07-0.29c-0.27-0.59-0.48-1.21-0.72-1.81c-0.3-0.75-0.66-1.48-1.08-2.17c-0.36-0.58-0.71-1.16-1.08-1.74
		c-0.2-0.31-0.39-0.61-0.63-0.89c-0.25-0.28-0.38-0.62-0.35-1.01c0.02-0.29,0.03-0.57,0.07-0.86c0.03-0.18,0.05-0.41,0.28-0.44
		c0.2-0.03,0.32,0.15,0.36,0.3c0.13,0.44,0.44,0.66,0.83,0.85c0.31,0.15,0.6,0.19,0.91,0.07c0.54-0.22,1.02-0.52,1.45-0.91
		c0.96-0.89,1.91-1.78,2.87-2.67c0.13-0.12,0.25-0.25,0.36-0.39c0.11-0.14,0.23-0.28,0.36-0.4c1.45-1.29,2.78-2.7,4.2-4.02
		c0.16-0.15,0.31-0.3,0.47-0.46c0.29-0.29,0.57-0.28,0.83,0.05c0.22,0.28,0.47,0.54,0.59,0.88c0.03,0.07,0.07,0.14,0.12,0.2
		c0.56,0.65,0.94,1.44,1.46,2.12c0.68,0.89,1.25,1.86,1.9,2.76c0.83,1.16,1.62,2.34,2.43,3.51c0.13,0.19,0.2,0.4,0.26,0.63
		c0.2,0.72,0.18,1.42-0.06,2.13c-0.05,0.14-0.11,0.27-0.2,0.39c-0.44,0.64-0.95,1.21-1.47,1.78c-0.49,0.53-0.91,1.12-1.36,1.69
		c-0.09,0.12-0.19,0.23-0.29,0.34c-0.2,0.21-0.4,0.41-0.55,0.66c-0.11,0.18-0.28,0.3-0.42,0.45c-0.28,0.15-0.54,0.01-0.52-0.32
		c0.03-0.59,0.01-1.19,0.24-1.76c0.1-0.25,0.16-0.51,0.15-0.78c0-0.11,0.02-0.22,0.04-0.32c0.35-1.42,0.56-2.87,0.85-4.31
		c0.1-0.49,0.22-0.96,0.59-1.34c0.16-0.16,0.11-0.31-0.11-0.33c-0.49-0.05-0.99-0.04-1.48-0.01c-0.2,0.01-0.27,0.16-0.14,0.31
		c0.31,0.36,0.24,0.76,0.21,1.18c-0.06,0.84-0.36,1.64-0.45,2.48c-0.11,1.04-0.44,2.05-0.48,3.11c0,0.01,0,0.02-0.01,0.03
		c-0.04,0.17-0.07,0.39-0.28,0.41c-0.21,0.02-0.26-0.18-0.32-0.34c-0.17-0.41-0.26-0.84-0.3-1.27c-0.09-1.11-0.36-2.19-0.47-3.29
		c-0.05-0.48-0.16-0.96-0.15-1.45c0-0.31,0.06-0.58,0.25-0.83c0.17-0.22,0.11-0.33-0.17-0.36c-0.29-0.03-0.57,0.06-0.86,0.05
		c-0.63-0.01-1.27,0.04-1.9-0.04c-0.27-0.04-0.38,0.07-0.25,0.25c0.35,0.5,0.27,1.05,0.17,1.58c-0.23,1.21-0.32,2.43-0.6,3.63
		c-0.13,0.57-0.1,1.16-0.22,1.73c-0.04,0.17-0.02,0.42-0.23,0.43c-0.24,0.01-0.28-0.24-0.33-0.43c-0.18-0.71-0.31-1.43-0.4-2.16
		c-0.13-1.19-0.37-2.36-0.51-3.55c-0.06-0.5,0.08-0.89,0.43-1.23c0.06-0.05,0.16-0.1,0.13-0.18c-0.03-0.1-0.15-0.09-0.23-0.08
		c-1,0.12-2,0.01-2.99,0.05c-0.18,0.01-0.36-0.02-0.53-0.03c-0.06-0.01-0.12-0.01-0.16,0.05c-0.04,0.06,0.01,0.11,0.04,0.16
		c0.02,0.03,0.03,0.05,0.06,0.07c0.57,0.4,0.68,1.03,0.78,1.64c0.13,0.77,0.23,1.54,0.39,2.31c0.22,1.12,0.39,2.26,0.55,3.4
		c0.04,0.25,0.09,0.51,0.13,0.76c0.06,0.3,0.07,0.58-0.13,0.85c-0.12,0.15-0.05,0.26,0.14,0.29c0.09,0.01,0.18,0.02,0.27,0.01
		c0.82-0.09,1.64-0.07,2.46,0c0.11,0.01,0.22,0,0.33,0c0.33-0.01,0.38-0.1,0.22-0.37c-0.15-0.25-0.16-0.51-0.1-0.77
		c0.31-1.27,0.44-2.57,0.68-3.86c0.03-0.15,0.05-0.29,0.11-0.43c0.05-0.11,0.12-0.22,0.26-0.21c0.13,0.01,0.18,0.11,0.22,0.21
		c0.03,0.06,0.05,0.13,0.06,0.2c0.08,0.79,0.28,1.56,0.39,2.34c0.08,0.6,0.17,1.19,0.29,1.79c0.05,0.24,0.03,0.46-0.1,0.69
		c-0.15,0.27-0.09,0.38,0.21,0.4c0.52,0.03,1.05,0.04,1.57-0.01c0.45-0.05,0.91-0.06,1.36,0.01C35.75,83.81,35.97,83.85,35.89,84.14
		z"/>
	<path d="M35.89,84.14c0.01-0.15-0.05-0.22-0.2-0.24c-0.21-0.04-0.41-0.04-0.62-0.04c-0.78,0.01-1.56,0.02-2.35,0.03
		c-0.1,0-0.2,0-0.3-0.02c-0.25-0.05-0.31-0.19-0.17-0.4c0.01-0.02,0.02-0.03,0.04-0.05c0.14-0.16,0.19-0.34,0.15-0.55
		c-0.08-0.42-0.18-0.83-0.22-1.26c-0.08-1.01-0.39-1.98-0.46-2.99c-0.01-0.1-0.04-0.19-0.07-0.29c-0.02-0.05-0.04-0.12-0.11-0.13
		c-0.08-0.01-0.13,0.05-0.16,0.11c-0.08,0.14-0.11,0.3-0.13,0.45c-0.04,0.27-0.06,0.55-0.12,0.82c-0.19,0.81-0.23,1.64-0.41,2.46
		c-0.05,0.22-0.11,0.44-0.16,0.66c-0.06,0.27-0.05,0.53,0.16,0.75c0.08,0.08,0.13,0.17,0.07,0.29c-0.06,0.13-0.16,0.16-0.29,0.15
		c-0.49-0.04-0.99-0.03-1.48-0.04c-0.52,0-1.05,0-1.57,0.04c-0.08,0.01-0.16,0.01-0.24,0c-0.21-0.04-0.3-0.26-0.16-0.4
		c0.25-0.23,0.23-0.49,0.17-0.78c-0.21-1.19-0.4-2.38-0.58-3.57c-0.07-0.46-0.14-0.91-0.28-1.36c-0.11-0.37-0.12-0.76-0.15-1.14
		c-0.04-0.42-0.1-0.82-0.27-1.21c-0.02-0.04-0.03-0.07-0.03-0.11c-0.01-0.24-0.15-0.4-0.34-0.53c-0.14-0.1-0.27-0.21-0.35-0.36
		c-0.09-0.16-0.02-0.27,0.16-0.28c0.08,0,0.16,0.01,0.23,0.03c0.15,0.04,0.3,0.05,0.44,0.04c0.49-0.05,0.99-0.02,1.48-0.01
		c0.5,0,1.01,0.01,1.51-0.03c0.02,0,0.04,0,0.06,0c0.13,0,0.29-0.04,0.34,0.1c0.06,0.16-0.12,0.2-0.21,0.27
		c-0.34,0.29-0.51,0.64-0.45,1.1c0.09,0.66,0.16,1.32,0.26,1.97c0.09,0.59,0.25,1.16,0.28,1.76c0.03,0.72,0.23,1.4,0.38,2.1
		c0.03,0.15,0.08,0.31,0.21,0.42c0.12-0.04,0.11-0.15,0.14-0.24c0.13-0.44,0.11-0.9,0.17-1.35c0.04-0.26,0.06-0.53,0.13-0.79
		c0.17-0.58,0.19-1.19,0.29-1.78c0.09-0.52,0.18-1.03,0.26-1.55c0.04-0.25,0.07-0.51,0.09-0.77c0.03-0.24-0.03-0.47-0.15-0.68
		c-0.03-0.05-0.06-0.1-0.1-0.15c-0.06-0.09-0.15-0.17-0.09-0.29c0.07-0.13,0.19-0.11,0.31-0.1c0.95,0.07,1.9,0.02,2.85,0
		c0.14,0,0.31-0.06,0.4,0.11c0.1,0.18-0.04,0.29-0.15,0.41c-0.15,0.17-0.22,0.36-0.23,0.59c-0.01,0.53,0.11,1.04,0.15,1.56
		c0.07,0.78,0.27,1.54,0.37,2.31c0.06,0.52,0.09,1.04,0.21,1.56c0.06,0.27,0.12,0.54,0.23,0.8c0.04,0.1,0.08,0.26,0.22,0.23
		c0.12-0.02,0.13-0.16,0.15-0.27c0.08-0.4,0.08-0.81,0.15-1.21c0.09-0.53,0.25-1.04,0.31-1.57c0.05-0.43,0.07-0.87,0.2-1.29
		c0.21-0.69,0.25-1.4,0.36-2.1c0.03-0.22,0-0.41-0.17-0.57c-0.07-0.07-0.13-0.15-0.16-0.24c-0.06-0.15,0.01-0.28,0.17-0.32
		c0.06-0.01,0.12-0.01,0.18-0.01c0.47,0,0.93,0,1.4,0c0.05,0,0.1,0,0.15,0.01c0.26,0.04,0.35,0.25,0.16,0.42
		c-0.46,0.4-0.56,0.94-0.67,1.48c-0.14,0.74-0.31,1.47-0.42,2.21c-0.1,0.69-0.3,1.35-0.42,2.03c-0.02,0.13-0.04,0.26-0.04,0.38
		c0,0.19-0.04,0.37-0.11,0.55c-0.26,0.6-0.26,1.23-0.28,1.87c-0.01,0.27,0.12,0.35,0.43,0.31C36.28,83.68,36.1,83.92,35.89,84.14z"
		/>
	<path d="M48.35,41.32c-0.06,0.08-0.13,0.12-0.2,0.15c-0.39,0.15-0.54,0.48-0.62,0.84c-0.04,0.18-0.07,0.37-0.07,0.56
		c0,0.83,0,1.66,0,2.49c0,0.22,0.02,0.43,0.1,0.64c0.09,0.25,0.22,0.46,0.46,0.6c0.09,0.05,0.17,0.12,0.14,0.24
		c-0.03,0.12-0.14,0.16-0.25,0.17c-0.07,0.01-0.14,0.01-0.21,0c-1.45-0.07-2.91-0.04-4.36-0.04c-0.86,0-1.7-0.16-2.5-0.44
		c-0.71-0.24-1.33-0.64-1.79-1.27c-0.12-0.16-0.24-0.31-0.36-0.47c-0.15-0.19-0.28-0.38-0.32-0.62c-0.01-0.04-0.02-0.08-0.04-0.11
		c-0.21-0.29-0.29-0.63-0.35-0.97c-0.06-0.36-0.2-0.7-0.23-1.07c-0.03-0.41-0.01-0.81,0.08-1.21c0.07-0.31,0.17-0.61,0.22-0.92
		c0.03-0.17,0.15-0.3,0.22-0.45c0.29-0.62,0.74-1.12,1.31-1.5c0.22-0.15,0.44-0.3,0.7-0.37c0.02-0.01,0.04-0.01,0.06-0.02
		c0.52-0.38,1.14-0.33,1.73-0.45c0.75-0.15,1.5-0.05,2.24,0.07c0.54,0.09,1.08,0.1,1.63,0.09c0.08,0,0.16-0.01,0.24,0
		c0.24,0.01,0.32,0.07,0.34,0.32c0.06,0.59,0.12,1.18,0.17,1.77c0.01,0.18,0.05,0.35,0.1,0.52c0.02,0.08,0.07,0.19-0.03,0.24
		c-0.11,0.06-0.18-0.03-0.25-0.1c-0.18-0.19-0.33-0.4-0.46-0.62c-0.25-0.45-0.66-0.77-1.09-0.98c-0.55-0.28-1.15-0.51-1.8-0.36
		c-0.59,0.14-1.15,0.36-1.54,0.87c-0.56,0.74-0.87,1.56-0.86,2.5c0,0.11,0,0.22,0,0.33c0,1.24,0,1.24,0.43,2.4
		c0.24,0.64,0.63,1.18,1.2,1.55c0.63,0.41,1.31,0.52,2.03,0.2c0.17-0.08,0.26-0.21,0.29-0.38c0.08-0.52,0.18-1.03,0.11-1.56
		c-0.02-0.14-0.01-0.28,0.01-0.41c0.04-0.51,0.03-1.01-0.09-1.5c-0.06-0.25-0.17-0.44-0.45-0.49c-0.13-0.02-0.28-0.08-0.25-0.24
		c0.03-0.14,0.17-0.17,0.31-0.16c0.84,0.03,1.68-0.01,2.52,0.03c0.31,0.01,0.61-0.02,0.92-0.03C48,41.12,48.21,41.13,48.35,41.32z"
		/>
	<path d="M25.93,59.66c-0.43,0.04-0.77,0.03-1.1,0.01c-0.58-0.04-1.17,0.02-1.75-0.01c-0.14-0.01-0.27,0.04-0.41,0.06
		c-0.11,0.01-0.23,0.04-0.29-0.09c-0.06-0.13-0.02-0.25,0.09-0.34c0.08-0.07,0.16-0.15,0.21-0.25c0.08-0.14,0.12-0.29,0.13-0.45
		c0.11-2.48,0.07-4.97,0.02-7.45c-0.01-0.3-0.09-0.54-0.38-0.68c-0.09-0.05-0.16-0.13-0.14-0.24c0.02-0.13,0.13-0.16,0.24-0.19
		c0.11-0.03,0.22-0.03,0.32-0.02c0.94,0.04,1.88,0.03,2.82-0.01c0.04,0,0.08,0,0.12,0c0.12,0,0.25-0.01,0.31,0.12
		c0.06,0.12-0.01,0.24-0.09,0.33c-0.3,0.35-0.38,0.76-0.38,1.22c0,0.91-0.03,1.82-0.02,2.73c0.01,0.74,0.02,1.48,0.03,2.22
		c0,0.42-0.06,0.83-0.01,1.25c0.02,0.15,0.05,0.29,0.1,0.43c0.11,0.31,0.32,0.45,0.65,0.5c0.88,0.13,1.59-0.18,2.23-0.73
		c0.38-0.32,0.74-0.66,0.99-1.09c0.07-0.13,0.13-0.27,0.19-0.4c0.03-0.06,0.06-0.13,0.1-0.18c0.04-0.06,0.1-0.11,0.17-0.08
		c0.05,0.02,0.08,0.08,0.08,0.15c0,0.21,0.03,0.42-0.04,0.62c-0.1,0.29-0.13,0.6-0.29,0.87c-0.03,0.06-0.05,0.13-0.06,0.2
		c-0.05,0.5-0.26,0.95-0.39,1.43c-0.08,0.31-0.18,0.35-0.46,0.18c-0.1-0.06-0.19-0.09-0.31-0.09C27.7,59.68,26.77,59.69,25.93,59.66
		z"/>
	<path d="M51.75,63.07c0.23,0.01,0.45,0.03,0.68,0.04c0.07,0,0.14,0,0.21,0.02c0.52,0.19,1.04,0.35,1.53,0.61
		c0.88,0.47,1.37,1.24,1.72,2.12c0.29,0.72,0.47,1.49,0.48,2.28c0.01,0.47-0.07,0.92-0.21,1.37c-0.03,0.09-0.07,0.19-0.08,0.28
		c-0.12,0.87-0.61,1.52-1.21,2.12c-0.52,0.52-1.15,0.81-1.85,1.01c-0.68,0.2-1.36,0.33-2.07,0.29c-0.26-0.02-0.51-0.04-0.76-0.11
		c-0.34-0.09-0.69-0.16-1.03-0.28c-1.05-0.38-1.84-1.06-2.34-2.06c-0.16-0.32-0.28-0.65-0.43-0.98c-0.06-0.13-0.07-0.27-0.09-0.4
		c-0.1-0.82-0.12-1.64-0.01-2.46c0.07-0.52,0.28-0.99,0.53-1.44c0.19-0.36,0.45-0.68,0.71-0.99c0.14-0.16,0.31-0.3,0.49-0.42
		c0.38-0.27,0.75-0.54,1.21-0.67c0.11-0.03,0.23-0.07,0.33-0.13c0.16-0.08,0.33-0.14,0.51-0.15C50.62,63.11,51.19,63.02,51.75,63.07
		z"/>
	<path class="st0" d="M53.35,68.63c0.01,0.49-0.02,0.99-0.07,1.48c-0.02,0.23-0.18,0.42-0.23,0.64c-0.15,0.6-0.58,0.95-1.09,1.21
		c-0.33,0.17-0.66,0.15-0.99-0.02c-0.73-0.38-1.16-0.99-1.43-1.74c-0.11-0.31-0.18-0.63-0.22-0.95c-0.02-0.23-0.06-0.45-0.12-0.67
		c-0.1-0.38-0.09-0.77-0.06-1.15c0.05-0.54,0.12-1.08,0.22-1.61c0.13-0.66,0.52-1.16,1.07-1.46c0.41-0.23,0.91-0.27,1.35,0.06
		c0.42,0.31,0.76,0.69,1.03,1.14c0.12,0.21,0.21,0.42,0.24,0.66c0.01,0.05,0.01,0.1,0.03,0.15c0.29,0.63,0.27,1.31,0.28,1.98
		C53.35,68.43,53.35,68.53,53.35,68.63z"/>
</g>
<line class="st22" x1="78.32" y1="22.1" x2="78.32" y2="103.53"/>
<g>
	<path class="st23" d="M90.82,78.96h1.28V96.6h-1.28V78.96z"/>
	<path class="st23" d="M102.96,78.96h1.28l11.66,15.59V78.96h1.28V96.6h-1.28l-11.66-15.59V96.6h-1.28V78.96z"/>
	<path class="st23" d="M128.44,78.96h6.01c5.39,0,9.22,3.65,9.22,8.81s-3.83,8.83-9.22,8.83h-6.01V78.96z M134.45,95.37
		c4.65,0,7.91-3.16,7.91-7.6s-3.26-7.58-7.91-7.58h-4.73v15.18H134.45z"/>
	<path class="st23" d="M153.94,89.61V78.96h1.28v10.66c0,3.54,2.36,6.06,5.73,6.06c3.36,0,5.73-2.52,5.73-6.06V78.96h1.28v10.66
		c0,4.26-2.9,7.29-7.01,7.29C156.84,96.91,153.94,93.88,153.94,89.61z"/>
	<path class="st23" d="M177.77,94.08l0.8-1c1.57,1.57,3.78,2.57,6.21,2.57c2.85,0,4.7-1.54,4.7-3.57c0-1.95-1.57-2.98-5.14-3.83
		c-3.96-0.9-5.78-2.11-5.78-4.6c0-2.9,2.39-5.03,5.73-5.03c2.31,0,4.44,0.95,6.11,2.52l-0.77,1c-1.52-1.44-3.42-2.29-5.42-2.29
		c-2.54,0-4.37,1.59-4.37,3.7c0,1.75,1.59,2.65,5.14,3.49c3.88,0.92,5.78,2.23,5.78,4.93c0,2.8-2.34,4.9-6.04,4.9
		C182.04,96.88,179.57,95.85,177.77,94.08z"/>
	<path class="st23" d="M206.02,80.21h-6.29v-1.26h13.87v1.26h-6.29V96.6h-1.28V80.21z"/>
	<path class="st23" d="M231.57,89.84l4.73,6.75h-1.52l-4.67-6.68h-5.62v6.68h-1.28V78.96h7.34c3.6,0,6.24,2.26,6.24,5.47
		C236.79,87.33,234.63,89.46,231.57,89.84z M224.48,88.66h5.8c3.06,0,5.19-1.69,5.19-4.24c0-2.52-2.13-4.21-5.19-4.21h-5.8V88.66z"
		/>
	<path class="st23" d="M246.13,78.96h1.28V96.6h-1.28V78.96z"/>
	<path class="st23" d="M259.18,80.21v6.78h9.78v1.23h-9.78v7.11h10.66v1.26h-11.94V78.96h11.94v1.26H259.18z"/>
	<path class="st23" d="M278.85,94.08l0.8-1c1.57,1.57,3.77,2.57,6.21,2.57c2.85,0,4.7-1.54,4.7-3.57c0-1.95-1.57-2.98-5.14-3.83
		c-3.96-0.9-5.78-2.11-5.78-4.6c0-2.9,2.39-5.03,5.73-5.03c2.31,0,4.44,0.95,6.11,2.52l-0.77,1c-1.52-1.44-3.42-2.29-5.42-2.29
		c-2.54,0-4.37,1.59-4.37,3.7c0,1.75,1.59,2.65,5.14,3.49c3.88,0.92,5.78,2.23,5.78,4.93c0,2.8-2.34,4.9-6.04,4.9
		C283.11,96.88,280.65,95.85,278.85,94.08z"/>
</g>
<g>
	<path class="st21" d="M113.56,42.52h-10.68v-3.73c0-2.35-0.1-3.82-0.3-4.42s-0.69-0.89-1.45-0.89c-0.66,0-1.11,0.25-1.34,0.76
		c-0.24,0.51-0.36,1.81-0.36,3.91v19.72c0,1.84,0.12,3.06,0.36,3.64c0.24,0.58,0.71,0.88,1.42,0.88c0.78,0,1.31-0.33,1.59-0.99
		c0.28-0.66,0.42-1.95,0.42-3.86v-4.87h-2.16v-6.24h12.51v22.05h-6.71l-0.99-2.94c-0.73,1.27-1.65,2.22-2.76,2.85
		s-2.42,0.95-3.92,0.95c-1.8,0-3.48-0.44-5.04-1.31c-1.57-0.87-2.76-1.95-3.57-3.24s-1.32-2.63-1.52-4.05
		c-0.2-1.41-0.3-3.53-0.3-6.36V42.19c0-3.92,0.21-6.78,0.63-8.55c0.42-1.78,1.64-3.4,3.64-4.89s4.6-2.22,7.78-2.22
		c3.13,0,5.73,0.64,7.79,1.93c2.06,1.29,3.41,2.81,4.04,4.58c0.63,1.77,0.94,4.34,0.94,7.7V42.52z"/>
	<path class="st21" d="M128.38,27.39v32.86h6.5v8.22H117.7V27.39H128.38z"/>
	<path class="st21" d="M161.09,51.45c0,4.13-0.1,7.05-0.29,8.77c-0.2,1.72-0.8,3.29-1.83,4.71c-1.03,1.42-2.41,2.51-4.15,3.27
		c-1.74,0.76-3.77,1.14-6.09,1.14c-2.2,0-4.17-0.36-5.93-1.08c-1.75-0.72-3.16-1.8-4.23-3.24c-1.07-1.44-1.7-3-1.9-4.7
		c-0.2-1.69-0.3-4.65-0.3-8.88v-7.03c0-4.13,0.1-7.05,0.29-8.77c0.19-1.72,0.8-3.29,1.83-4.71c1.02-1.42,2.41-2.51,4.15-3.27
		c1.74-0.76,3.77-1.14,6.09-1.14c2.2,0,4.17,0.36,5.93,1.08c1.75,0.72,3.16,1.8,4.22,3.24c1.07,1.44,1.7,3,1.9,4.7
		s0.3,4.65,0.3,8.88V51.45z M150.41,37.95c0-1.91-0.11-3.13-0.32-3.67c-0.21-0.53-0.65-0.8-1.31-0.8c-0.56,0-0.99,0.22-1.28,0.65
		c-0.3,0.43-0.44,1.7-0.44,3.82v19.19c0,2.39,0.1,3.86,0.29,4.42c0.19,0.56,0.65,0.84,1.36,0.84c0.73,0,1.19-0.32,1.4-0.96
		c0.2-0.64,0.3-2.17,0.3-4.59V37.95z"/>
	<path class="st21" d="M205.3,27.39l-4.76,41.09h-13.34c-1.22-6.31-2.3-13.49-3.23-21.55c-0.43,3.45-1.42,10.63-2.98,21.55h-13.26
		l-4.78-41.09h10.38l1.13,14.34l1.09,13.86c0.39-7.17,1.38-16.57,2.95-28.19h11.09c0.15,1.2,0.54,5.72,1.17,13.55l1.18,15.63
		c0.61-9.95,1.6-19.67,2.98-29.18H205.3z"/>
	<path class="st21" d="M231.98,27.39v41.09h-10.68V51.22h-3.2v17.26h-10.68V27.39h10.68v14.69h3.2V27.39H231.98z"/>
	<path class="st21" d="M246.95,27.39v41.09h-10.68V27.39H246.95z"/>
	<path class="st21" d="M272.76,27.39v8.22h-6.34v32.86h-10.68V35.61h-6.32v-8.22H272.76z"/>
	<path class="st21" d="M275.19,27.39h17.82v8.22h-7.13v7.79h6.67v7.82h-6.67v9.03h7.84v8.22h-18.53V27.39z"/>
</g>
</svg>
