<?xml version="1.0" encoding="utf-8"?>
<!-- Generator: Adobe Illustrator 23.0.5, SVG Export Plug-In . SVG Version: 6.00 Build 0)  -->
<svg version="1.1" id="Layer_1" xmlns="http://www.w3.org/2000/svg" xmlns:xlink="http://www.w3.org/1999/xlink" x="0px" y="0px"
	 viewBox="0 0 120 25" style="enable-background:new 0 0 120 25;" xml:space="preserve">
<style type="text/css">
	.st0{fill:#FFFFFF;}
	.st1{fill:#D6D5D4;}
	.st2{fill:#C8C6C6;}
	.st3{fill:#DBDAD9;}
	.st4{fill:#7D7B7B;}
	.st5{fill:#DFDEDE;}
	.st6{fill:#898787;}
	.st7{fill:#8F8D8D;}
	.st8{fill:#767474;}
	.st9{fill:#BAB7B7;}
	.st10{fill:#ADAAA9;}
	.st11{fill:#918F8F;}
	.st12{fill:#9B9898;}
	.st13{fill:#ADAAAA;}
	.st14{fill:#CAC8C8;}
	.st15{fill:#B3B0B0;}
	.st16{fill:#D7D5D5;}
	.st17{fill:#DDDCDC;}
	.st18{fill:#908E8E;}
	.st19{fill:#B8B6B6;}
	.st20{fill:#CCCACA;}
	.st21{fill:#EC1D24;}
	.st22{fill:none;stroke:#EC1D24;stroke-width:0.4434;stroke-miterlimit:10;}
	.st23{fill:#3A3A3A;}
</style>
<g>
	<path d="M19.16,2.86c0,6.61,0,13.22,0,19.83c-0.03,0.25-0.16,0.45-0.3,0.64c-0.26,0.34-0.6,0.57-1.02,0.68
		c-0.11,0.03-0.22,0.03-0.34,0.03c-0.04,0-0.09,0-0.13,0c-0.09,0-0.18,0-0.27,0c-0.1,0-0.2,0-0.29,0c-0.05,0-0.1,0-0.15,0
		c-0.05,0-0.1,0-0.15,0c-0.15,0-0.31,0-0.46,0c-0.12,0-0.23,0-0.35,0c-0.05,0-0.1,0-0.15,0c-0.03,0-0.06,0-0.1,0
		c-2.84,0-5.68,0-8.52,0c-0.03,0-0.07,0-0.1,0c-0.38,0-0.77,0-1.15,0c-0.12,0-0.24,0-0.36,0c-0.05,0-0.09,0-0.14,0
		c-0.04,0-0.09,0-0.13,0c-0.03,0-0.06,0-0.1,0c-0.45,0-0.82-0.16-1.15-0.46c-0.2-0.18-0.35-0.39-0.46-0.63
		c-0.08-0.18-0.13-0.37-0.13-0.57c0-6.42,0-12.84,0-19.26c0.04-0.36,0.17-0.68,0.41-0.95c0.35-0.39,0.8-0.58,1.31-0.64
		c0.03,0,0.07,0,0.1,0c4.13,0,8.25-0.01,12.38,0.01c0.76,0,1.42,0.43,1.71,1.13C19.14,2.72,19.14,2.79,19.16,2.86z"/>
	<path class="st0" d="M19.16,2.86c-0.03-0.03-0.03-0.07-0.04-0.11c-0.23-0.6-0.66-0.97-1.28-1.13c-0.19-0.05-0.38-0.07-0.58-0.07
		c-4.08,0-8.16,0-12.23,0C4.26,1.61,3.67,1.93,3.34,2.65c-0.06,0.14-0.1,0.3-0.12,0.45c-0.02,0.1,0,0.21-0.01,0.31
		C3.2,3.43,3.2,3.43,3.19,3.42c0-0.64,0-1.29,0-1.93c5.32,0,10.65,0,15.97,0C19.16,1.95,19.16,2.4,19.16,2.86z"/>
	<path class="st0" d="M3.22,22.41c0.01,0.18,0.05,0.35,0.12,0.51c0.17,0.4,0.45,0.72,0.84,0.92c0.22,0.12,0.46,0.18,0.71,0.2
		c0.01,0,0.02,0,0.03,0c0.01,0,0.01,0.01,0.01,0.01c0,0,0,0-0.01,0c-0.58,0-1.16,0-1.75,0c0-0.6,0-1.2,0-1.8
		c0.01-0.01,0.02,0,0.02,0C3.22,22.31,3.2,22.36,3.22,22.41z"/>
	<path class="st0" d="M17.51,24.04c0.34-0.02,0.65-0.13,0.93-0.33c0.32-0.23,0.55-0.54,0.68-0.91c0.01-0.04,0.01-0.08,0.03-0.11
		c0,0.45,0,0.91,0,1.36c-0.55,0-1.1,0-1.65,0C17.51,24.05,17.51,24.04,17.51,24.04C17.51,24.04,17.51,24.04,17.51,24.04z"/>
	<path class="st1" d="M3.19,19.53c0-5.01,0-10.03,0-15.04c0.01-0.01,0.02,0,0.02,0.01c0,0.02,0,0.05,0,0.07c0,4.96,0,9.91,0,14.87
		c0,0.02,0,0.05,0,0.07C3.21,19.53,3.2,19.53,3.19,19.53z"/>
	<path class="st2" d="M6.91,24.04c0.04,0,0.07,0,0.11,0c2.78,0,5.56,0,8.34,0c0.03,0,0.06,0,0.09,0c0.01,0,0.01,0.01,0.01,0.01
		c0,0,0,0,0,0c-2.85,0-5.7,0-8.54,0C6.9,24.05,6.9,24.04,6.91,24.04C6.91,24.04,6.91,24.04,6.91,24.04z"/>
	<path class="st3" d="M3.19,19.53c0,0,0.01,0,0.01,0c0.02,0.02,0.01,0.05,0.01,0.07c0,0.86,0,1.73,0,2.59
		c0,0.02,0.01,0.05-0.01,0.07c0,0-0.01,0-0.01,0C3.19,21.35,3.19,20.44,3.19,19.53z"/>
	<path class="st4" d="M5.66,24.04c0.15,0,0.3,0,0.45,0c0.24,0,0.48,0,0.72,0c0.01,0,0.01,0.01,0,0.01c0,0,0,0-0.01,0
		c-0.39,0-0.78,0-1.16,0C5.66,24.05,5.66,24.04,5.66,24.04C5.66,24.04,5.66,24.04,5.66,24.04z"/>
	<path class="st5" d="M3.2,4.49c0,0-0.01,0-0.01,0c0-0.35,0-0.71,0-1.06c0,0,0.01,0,0.01,0c0.02,0.01,0.01,0.03,0.01,0.05
		c0,0.33,0,0.65,0,0.98C3.21,4.46,3.22,4.48,3.2,4.49z"/>
	<path class="st6" d="M16.04,24.04c0.16,0,0.31-0.01,0.47,0c0.01,0,0.01,0.01,0.01,0.01c0,0,0,0-0.01,0c-0.16,0-0.31,0-0.47,0
		C16.03,24.05,16.03,24.04,16.04,24.04C16.03,24.04,16.03,24.04,16.04,24.04z"/>
	<path class="st7" d="M5.66,24.04c0,0,0,0.01,0,0.01c-0.12,0-0.24,0-0.37,0c-0.01,0-0.01-0.01-0.01-0.01c0,0,0,0,0,0
		C5.42,24.03,5.54,24.03,5.66,24.04z"/>
	<path class="st8" d="M16.04,24.04c0,0,0,0.01,0,0.01c-0.12,0-0.23,0-0.35,0c-0.01,0-0.01-0.01-0.01-0.01c0,0,0,0,0,0
		C15.8,24.04,15.92,24.04,16.04,24.04z"/>
	<path class="st9" d="M16.8,24.04c0.1-0.01,0.2,0,0.3,0c0.01,0,0.01,0.01,0.01,0.01c0,0,0,0-0.01,0c-0.1,0-0.2,0-0.3,0
		C16.79,24.05,16.79,24.04,16.8,24.04C16.8,24.04,16.8,24.04,16.8,24.04z"/>
	<path class="st10" d="M17.1,24.05c0,0,0-0.01,0-0.01c0.09,0,0.19,0,0.28,0c0.01,0,0.01,0.01,0,0.01c0,0,0,0-0.01,0
		C17.29,24.05,17.19,24.05,17.1,24.05z"/>
	<path class="st11" d="M15.68,24.04c0,0,0,0.01,0,0.01c-0.05,0-0.1,0-0.15,0c-0.01,0-0.01-0.01-0.01-0.01c0,0,0-0.01,0-0.01
		C15.59,24.04,15.63,24.04,15.68,24.04z"/>
	<path class="st12" d="M16.5,24.05c0,0,0-0.01,0-0.01c0.05,0,0.1,0,0.15,0c0.01,0,0.01,0.01,0.01,0.01c0,0,0,0-0.01,0
		C16.6,24.05,16.55,24.05,16.5,24.05z"/>
	<path class="st13" d="M16.65,24.05c0,0,0-0.01,0-0.01c0.05,0,0.1-0.01,0.15,0c0,0,0,0.01,0,0.01
		C16.75,24.05,16.7,24.05,16.65,24.05z"/>
	<path class="st14" d="M5.03,24.04c0.04-0.01,0.09,0,0.13,0c0.01,0,0.01,0.01,0.01,0.01c0,0,0,0-0.01,0c-0.04,0-0.09,0-0.13,0
		C5.03,24.05,5.02,24.04,5.03,24.04C5.03,24.04,5.03,24.04,5.03,24.04z"/>
	<path class="st15" d="M5.16,24.05c0,0,0-0.01,0-0.01c0.04-0.01,0.09,0,0.13,0c0,0,0,0.01,0,0.01C5.25,24.05,5.21,24.05,5.16,24.05z
		"/>
	<path class="st16" d="M17.38,24.05c0,0,0-0.01,0-0.01c0.04,0,0.09-0.01,0.13,0c0,0,0,0.01,0,0.01
		C17.47,24.05,17.43,24.05,17.38,24.05z"/>
	<path class="st17" d="M5.03,24.04c0,0,0,0.01,0,0.01c-0.03,0-0.07,0-0.1,0c0,0,0-0.01,0-0.01C4.96,24.03,5,24.03,5.03,24.04z"/>
	<path class="st18" d="M6.83,24.05c0,0,0-0.01,0-0.01c0.03,0,0.06,0,0.08,0c0,0,0,0.01,0,0.01C6.88,24.05,6.85,24.05,6.83,24.05z"/>
	<path class="st19" d="M15.54,24.04c0,0,0,0.01,0,0.01c-0.03,0-0.06,0-0.08,0c0,0,0-0.01,0-0.01
		C15.48,24.04,15.51,24.04,15.54,24.04z"/>
	<path class="st0" d="M3.58,12.72c0-2.99,0-5.97,0-8.96c0-0.17,0-0.34,0.01-0.51C3.6,3,3.66,2.77,3.82,2.56
		c0-0.01,0.01-0.01,0.01-0.02c0.07-0.18,0.21-0.3,0.36-0.4c0.14-0.1,0.3-0.17,0.47-0.2C4.83,1.9,5.01,1.9,5.18,1.9
		c3.32-0.01,6.65,0,9.97-0.01c0.78,0,1.57,0,2.35,0c0.36,0,0.67,0.11,0.94,0.35c0.14,0.13,0.25,0.27,0.33,0.44
		c0.05,0.11,0.12,0.22,0.13,0.36c0.01,0.19,0.03,0.38,0.03,0.57c0,0.37-0.01,0.74-0.01,1.11c0.02,3.63,0,7.26,0.01,10.89
		c0,0.16-0.01,0.32-0.01,0.47c0.02,1.91,0,3.82,0.01,5.73c0,0.25-0.01,0.51-0.04,0.76c-0.01,0.06-0.02,0.11-0.05,0.16
		c-0.01,0.01-0.02,0.03-0.02,0.04c-0.07,0.22-0.21,0.39-0.37,0.54c-0.15,0.14-0.32,0.25-0.52,0.31c-0.08,0.03-0.17,0.04-0.25,0.04
		c-0.6,0-1.2,0.01-1.79,0.01c-3.19,0-6.39,0-9.58,0c-0.48,0-0.96-0.01-1.44-0.01c-0.1,0-0.19-0.01-0.28-0.05
		c-0.01,0-0.02-0.01-0.02-0.01c-0.26-0.07-0.46-0.22-0.63-0.42c-0.08-0.1-0.15-0.21-0.2-0.32c-0.02-0.04-0.03-0.08-0.06-0.12
		c-0.02-0.02-0.03-0.05-0.03-0.08c-0.01-0.13-0.05-0.26-0.06-0.39c0-0.06,0-0.11,0-0.17c0-3.04,0-6.08,0-9.12
		C3.58,12.89,3.58,12.8,3.58,12.72z"/>
	<path class="st20" d="M3.2,4.49c0-0.36,0.01-0.71,0-1.07c0-0.08,0-0.15,0-0.23c0-0.03-0.01-0.06,0.02-0.09c0,0.33,0,0.67,0,1
		c0,5.15,0,10.29,0,15.44c0,0.88,0,1.76,0,2.63c0,0.07,0.01,0.15,0,0.22c-0.03-0.05-0.01-0.1-0.02-0.15c0-0.02,0-0.04,0-0.07
		c0-0.87,0-1.73,0-2.6c0-0.02,0-0.04,0-0.07c0-0.03,0-0.07,0-0.1c0-4.95,0-9.9,0-14.84C3.2,4.55,3.2,4.52,3.2,4.49z"/>
	<path class="st21" d="M4.21,12.81c0-0.57,0-1.12,0-1.66c0-2.24,0-4.48,0-6.72c0-0.13,0-0.26,0.02-0.38
		c0.03-0.15,0.05-0.31,0.13-0.45C4.44,3.47,4.5,3.34,4.58,3.22c0.07-0.1,0.16-0.19,0.26-0.26C4.92,2.91,5,2.86,5.08,2.8
		c0.04-0.03,0.08-0.04,0.12-0.06C5.45,2.66,5.7,2.63,5.97,2.63c2.84,0,5.68,0,8.52,0c0.74,0,1.48,0,2.23,0.01
		c0.32,0,0.61,0.09,0.88,0.28c0.2,0.14,0.35,0.31,0.47,0.52c0.03,0.05,0.06,0.11,0.09,0.16c0.04,0.06,0.06,0.13,0.07,0.19
		c0.06,0.27,0.08,0.53,0.08,0.81c0,2.72,0,5.45,0,8.17c0,2.83,0,5.66,0,8.48c0,0.29-0.06,0.57-0.19,0.83
		c-0.18,0.36-0.47,0.61-0.84,0.77c-0.09,0.04-0.18,0.06-0.27,0.06c-0.13,0.01-0.26,0.02-0.39,0.02c-2.66,0.03-5.33,0.01-7.99,0.02
		c-0.86,0-1.73,0-2.59,0c-0.17,0-0.35,0-0.52-0.03c-0.08-0.01-0.15-0.03-0.22-0.06c-0.28-0.1-0.51-0.27-0.7-0.5
		c-0.05-0.06-0.1-0.13-0.14-0.21c-0.01-0.02-0.02-0.04-0.03-0.05c-0.11-0.18-0.15-0.37-0.19-0.57c-0.01-0.07-0.01-0.13-0.01-0.2
		c0-1.23,0-2.47,0-3.7c0-1.35,0-2.71,0-4.06C4.21,13.3,4.2,13.04,4.21,12.81z"/>
	<path class="st0" d="M12.67,3.77c0.06,0,0.15,0.02,0.23,0.05c0.14,0.05,0.27,0.12,0.36,0.25c0.06,0.09,0.12,0.17,0.18,0.26
		c0.12,0.16,0.23,0.33,0.36,0.49c0.01,0.01,0.03,0.03,0.04,0.05c0.2,0.33,0.43,0.63,0.65,0.96c0.14,0.21,0.29,0.41,0.42,0.63
		c0.06,0.1,0.14,0.18,0.21,0.26c0.12,0.14,0.24,0.27,0.36,0.4c0.21,0.21,0.42,0.42,0.65,0.6c0.14,0.11,0.2,0.25,0.22,0.41
		c0.01,0.07,0.01,0.14,0,0.21c-0.02,0.09-0.08,0.11-0.15,0.06c-0.03-0.02-0.05-0.04-0.07-0.07c-0.03-0.05-0.08-0.08-0.14-0.1
		c-0.24-0.08-0.45-0.03-0.64,0.19c-0.06,0.07-0.11,0.16-0.17,0.23c-0.14,0.18-0.25,0.39-0.39,0.57c-0.08,0.11-0.14,0.24-0.21,0.35
		c-0.15,0.23-0.29,0.46-0.44,0.69c-0.11,0.17-0.23,0.33-0.31,0.52c-0.01,0.02-0.03,0.04-0.04,0.06c-0.06,0.07-0.11,0.15-0.15,0.24
		c-0.01,0.03-0.03,0.05-0.05,0.08c-0.03,0.03-0.06,0.07-0.08,0.11c-0.09,0.18-0.22,0.33-0.31,0.51c-0.03,0.06-0.07,0.12-0.12,0.17
		c-0.05,0.06-0.08,0.06-0.14,0.01c-0.04-0.03-0.07-0.06-0.11-0.09c-0.29-0.26-0.59-0.52-0.88-0.78c-0.27-0.24-0.53-0.49-0.81-0.73
		c-0.28-0.24-0.55-0.48-0.82-0.72c-0.13-0.11-0.23-0.24-0.34-0.36C9.91,9.2,9.88,9.13,9.87,9.04C9.86,8.98,9.85,8.92,9.84,8.86
		c-0.02-0.1,0-0.19,0.02-0.28c0.01-0.05,0.02-0.1,0.03-0.15C9.89,8.38,9.91,8.34,9.94,8.3C9.97,8.27,9.98,8.24,10,8.2
		c0.06-0.15,0.13-0.29,0.21-0.43c0.02-0.03,0.03-0.05,0.04-0.08c0.25-0.51,0.49-1.03,0.73-1.55c0.01-0.02,0.02-0.04,0.03-0.06
		c0.08-0.14,0.14-0.27,0.2-0.42c0.08-0.19,0.18-0.38,0.27-0.57c0.05-0.1,0.1-0.2,0.14-0.3c0.08-0.19,0.18-0.38,0.28-0.57
		c0.05-0.1,0.13-0.18,0.21-0.25c0.07-0.07,0.16-0.1,0.25-0.14C12.45,3.79,12.55,3.78,12.67,3.77z"/>
	<path class="st0" d="M8.79,14.47c-0.17,0.02-0.31-0.03-0.45-0.11c-0.14-0.07-0.27-0.15-0.4-0.23c-0.1-0.07-0.22-0.12-0.33-0.18
		c-0.14-0.07-0.27-0.15-0.4-0.23c-0.08-0.05-0.16-0.1-0.24-0.12c-0.07-0.02-0.13-0.06-0.19-0.1c-0.08-0.05-0.16-0.1-0.24-0.13
		c-0.14-0.05-0.26-0.13-0.39-0.2c-0.34-0.19-0.69-0.37-1.03-0.55c-0.07-0.04-0.14-0.07-0.21-0.12c-0.15-0.13-0.28-0.26-0.34-0.46
		c-0.04-0.12-0.06-0.24-0.04-0.36c0.02-0.13,0.07-0.27,0.15-0.38c0.09-0.11,0.2-0.21,0.32-0.3c0.32-0.23,0.61-0.49,0.93-0.73
		c0.21-0.16,0.41-0.33,0.63-0.48c0.26-0.18,0.49-0.39,0.7-0.63C7.32,9.08,7.4,9.01,7.47,8.94c0.17-0.18,0.32-0.37,0.46-0.58
		c0.02-0.04,0.06-0.06,0.1-0.07c0.05-0.01,0.1-0.03,0.14-0.04c0.09-0.03,0.19-0.02,0.28,0.02C8.5,8.28,8.51,8.3,8.47,8.35
		C8.43,8.41,8.38,8.47,8.33,8.52c-0.06,0.06-0.07,0.13-0.08,0.2C8.25,8.84,8.28,8.94,8.34,9.04c0.08,0.12,0.18,0.22,0.29,0.32
		c0.05,0.05,0.12,0.08,0.18,0.13C8.97,9.6,9.12,9.71,9.27,9.81c0.4,0.28,0.8,0.57,1.2,0.85c0.28,0.2,0.55,0.41,0.84,0.6
		c0.06,0.04,0.11,0.08,0.16,0.12c0.04,0.03,0.04,0.05,0.02,0.1c-0.02,0.03-0.03,0.05-0.05,0.07C11.3,11.7,11.2,11.85,11.09,12
		c-0.32,0.39-0.62,0.79-0.94,1.19c-0.22,0.28-0.46,0.56-0.67,0.86c-0.05,0.07-0.11,0.13-0.16,0.2c-0.08,0.09-0.18,0.15-0.28,0.21
		C8.96,14.48,8.87,14.47,8.79,14.47z"/>
	<path class="st0" d="M13.61,18.24c-0.05,0-0.14-0.03-0.24-0.06c-0.06-0.02-0.06-0.06-0.02-0.1c0.04-0.04,0.09-0.07,0.14-0.1
		c0.07-0.04,0.11-0.1,0.11-0.18c0-0.06,0.03-0.11,0.03-0.16c0-0.13-0.03-0.24-0.09-0.35c-0.09-0.14-0.19-0.27-0.31-0.39
		c-0.37-0.38-0.74-0.75-1.11-1.12c-0.18-0.19-0.37-0.39-0.56-0.57c-0.15-0.15-0.3-0.31-0.45-0.46c-0.06-0.06-0.13-0.1-0.18-0.16
		c-0.07-0.09-0.07-0.1,0-0.19c0.08-0.1,0.18-0.18,0.28-0.27c0.38-0.33,0.76-0.67,1.13-1c0.33-0.29,0.65-0.57,0.97-0.87
		c0.06-0.05,0.11-0.11,0.18-0.15c0.06-0.05,0.13-0.08,0.21-0.1c0.03-0.01,0.07-0.02,0.1-0.04c0.08-0.04,0.16-0.04,0.24-0.01
		c0.19,0.06,0.35,0.15,0.5,0.28c0.18,0.16,0.36,0.3,0.54,0.45c0.29,0.24,0.59,0.47,0.89,0.71c0.45,0.35,0.88,0.71,1.34,1.04
		c0.06,0.05,0.12,0.1,0.18,0.14c0.02,0.02,0.04,0.04,0.05,0.06c0.06,0.09,0.12,0.18,0.18,0.28c0.02,0.03,0.03,0.05,0.04,0.08
		c0.03,0.14,0.04,0.29,0.02,0.44c-0.02,0.17-0.1,0.3-0.21,0.41c-0.1,0.1-0.2,0.18-0.34,0.22c-0.02,0.01-0.04,0.02-0.05,0.02
		c-0.21,0.12-0.44,0.22-0.65,0.34c-0.2,0.12-0.42,0.21-0.62,0.34c-0.01,0.01-0.02,0.01-0.03,0.02c-0.2,0.08-0.38,0.2-0.57,0.28
		c-0.07,0.03-0.14,0.07-0.21,0.11c-0.02,0.01-0.03,0.02-0.05,0.03c-0.26,0.14-0.47,0.34-0.7,0.52c-0.16,0.12-0.31,0.26-0.46,0.39
		C13.84,18.21,13.75,18.24,13.61,18.24z"/>
	<path class="st0" d="M10.72,19.36c-0.17,0.23-0.35,0.45-0.53,0.67c-0.08,0.11-0.17,0.21-0.25,0.32c-0.13,0.18-0.28,0.34-0.43,0.51
		c-0.06,0.07-0.15,0.13-0.24,0.16c-0.08,0.03-0.16,0.05-0.24,0.07c-0.05,0.01-0.1,0.01-0.15-0.01c-0.08-0.02-0.15-0.04-0.23-0.06
		C8.63,21.02,8.59,21,8.57,20.98c-0.1-0.1-0.19-0.21-0.24-0.34c-0.1-0.26-0.2-0.53-0.31-0.79c-0.01-0.04-0.03-0.07-0.05-0.1
		c-0.01-0.02-0.03-0.04-0.03-0.06c-0.03-0.15-0.11-0.28-0.15-0.43c-0.01-0.03-0.01-0.05-0.03-0.07c-0.06-0.07-0.08-0.14-0.09-0.23
		c0-0.03-0.01-0.05-0.02-0.08c-0.08-0.17-0.13-0.34-0.2-0.51c-0.08-0.21-0.18-0.42-0.3-0.61c-0.1-0.16-0.2-0.33-0.3-0.49
		c-0.06-0.09-0.11-0.17-0.18-0.25c-0.07-0.08-0.11-0.17-0.1-0.28c0.01-0.08,0.01-0.16,0.02-0.24c0.01-0.05,0.01-0.11,0.08-0.12
		c0.06-0.01,0.09,0.04,0.1,0.08c0.04,0.12,0.12,0.18,0.23,0.24c0.09,0.04,0.17,0.05,0.25,0.02c0.15-0.06,0.29-0.15,0.41-0.26
		c0.27-0.25,0.53-0.5,0.8-0.75c0.04-0.03,0.07-0.07,0.1-0.11c0.03-0.04,0.06-0.08,0.1-0.11c0.41-0.36,0.78-0.76,1.18-1.13
		c0.04-0.04,0.09-0.09,0.13-0.13c0.08-0.08,0.16-0.08,0.23,0.01c0.06,0.08,0.13,0.15,0.16,0.25c0.01,0.02,0.02,0.04,0.03,0.06
		c0.16,0.18,0.26,0.4,0.41,0.59c0.19,0.25,0.35,0.52,0.53,0.77c0.23,0.32,0.45,0.65,0.68,0.98c0.04,0.05,0.06,0.11,0.07,0.17
		c0.06,0.2,0.05,0.4-0.02,0.6c-0.01,0.04-0.03,0.08-0.06,0.11c-0.12,0.18-0.27,0.34-0.41,0.5c-0.14,0.15-0.25,0.31-0.38,0.47
		c-0.03,0.03-0.05,0.06-0.08,0.09c-0.06,0.06-0.11,0.11-0.15,0.18c-0.03,0.05-0.08,0.08-0.12,0.13c-0.08,0.04-0.15,0-0.15-0.09
		c0.01-0.17,0-0.33,0.07-0.49c0.03-0.07,0.04-0.14,0.04-0.22c0-0.03,0-0.06,0.01-0.09c0.1-0.4,0.16-0.8,0.24-1.21
		c0.03-0.14,0.06-0.27,0.17-0.37c0.04-0.05,0.03-0.09-0.03-0.09c-0.14-0.01-0.28-0.01-0.41,0c-0.06,0-0.08,0.04-0.04,0.09
		c0.09,0.1,0.07,0.21,0.06,0.33c-0.02,0.24-0.1,0.46-0.13,0.69c-0.03,0.29-0.12,0.57-0.14,0.87c0,0,0,0.01,0,0.01
		c-0.01,0.05-0.02,0.11-0.08,0.11c-0.06,0.01-0.07-0.05-0.09-0.09c-0.05-0.11-0.07-0.23-0.08-0.35c-0.02-0.31-0.1-0.61-0.13-0.92
		c-0.01-0.13-0.04-0.27-0.04-0.4c0-0.09,0.02-0.16,0.07-0.23c0.05-0.06,0.03-0.09-0.05-0.1c-0.08-0.01-0.16,0.02-0.24,0.01
		c-0.18,0-0.35,0.01-0.53-0.01c-0.08-0.01-0.11,0.02-0.07,0.07c0.1,0.14,0.08,0.29,0.05,0.44c-0.06,0.34-0.09,0.68-0.17,1.02
		c-0.04,0.16-0.03,0.33-0.06,0.49c-0.01,0.05-0.01,0.12-0.07,0.12c-0.07,0-0.08-0.07-0.09-0.12c-0.05-0.2-0.09-0.4-0.11-0.6
		c-0.04-0.33-0.1-0.66-0.14-0.99c-0.02-0.14,0.02-0.25,0.12-0.34c0.02-0.01,0.04-0.03,0.04-0.05c-0.01-0.03-0.04-0.02-0.06-0.02
		c-0.28,0.03-0.56,0-0.84,0.01c-0.05,0-0.1,0-0.15-0.01c-0.02,0-0.03,0-0.04,0.01c-0.01,0.02,0,0.03,0.01,0.04
		c0,0.01,0.01,0.01,0.02,0.02c0.16,0.11,0.19,0.29,0.22,0.46c0.04,0.22,0.07,0.43,0.11,0.65c0.06,0.31,0.11,0.63,0.15,0.95
		c0.01,0.07,0.02,0.14,0.04,0.21c0.02,0.08,0.02,0.16-0.04,0.24c-0.03,0.04-0.01,0.07,0.04,0.08c0.02,0,0.05,0.01,0.07,0
		c0.23-0.02,0.46-0.02,0.69,0c0.03,0,0.06,0,0.09,0c0.09,0,0.11-0.03,0.06-0.1c-0.04-0.07-0.05-0.14-0.03-0.22
		c0.09-0.36,0.12-0.72,0.19-1.08c0.01-0.04,0.01-0.08,0.03-0.12c0.01-0.03,0.03-0.06,0.07-0.06c0.04,0,0.05,0.03,0.06,0.06
		c0.01,0.02,0.01,0.04,0.02,0.06c0.02,0.22,0.08,0.44,0.11,0.66c0.02,0.17,0.05,0.33,0.08,0.5c0.01,0.07,0.01,0.13-0.03,0.19
		c-0.04,0.07-0.03,0.11,0.06,0.11c0.15,0.01,0.29,0.01,0.44,0c0.13-0.01,0.25-0.02,0.38,0C10.68,19.27,10.74,19.28,10.72,19.36z"/>
	<path d="M10.72,19.36c0-0.04-0.01-0.06-0.05-0.07c-0.06-0.01-0.12-0.01-0.17-0.01c-0.22,0-0.44,0.01-0.66,0.01
		c-0.03,0-0.06,0-0.08-0.01c-0.07-0.01-0.09-0.05-0.05-0.11c0,0,0.01-0.01,0.01-0.01c0.04-0.04,0.05-0.09,0.04-0.15
		c-0.02-0.12-0.05-0.23-0.06-0.35c-0.02-0.28-0.11-0.55-0.13-0.84c0-0.03-0.01-0.05-0.02-0.08c-0.01-0.02-0.01-0.03-0.03-0.04
		c-0.02,0-0.04,0.01-0.04,0.03c-0.02,0.04-0.03,0.08-0.04,0.13c-0.01,0.08-0.02,0.15-0.03,0.23c-0.05,0.23-0.06,0.46-0.11,0.69
		c-0.01,0.06-0.03,0.12-0.04,0.19c-0.02,0.08-0.02,0.15,0.05,0.21c0.02,0.02,0.04,0.05,0.02,0.08c-0.02,0.04-0.05,0.05-0.08,0.04
		c-0.14-0.01-0.28-0.01-0.42-0.01c-0.15,0-0.29,0-0.44,0.01c-0.02,0-0.04,0-0.07,0c-0.06-0.01-0.09-0.07-0.04-0.11
		c0.07-0.07,0.06-0.14,0.05-0.22c-0.06-0.33-0.11-0.67-0.16-1c-0.02-0.13-0.04-0.26-0.08-0.38c-0.03-0.1-0.03-0.21-0.04-0.32
		C8.02,17.15,8,17.04,7.95,16.93c0-0.01-0.01-0.02-0.01-0.03c0-0.07-0.04-0.11-0.09-0.15c-0.04-0.03-0.08-0.06-0.1-0.1
		c-0.02-0.04,0-0.08,0.05-0.08c0.02,0,0.04,0,0.07,0.01c0.04,0.01,0.08,0.01,0.12,0.01c0.14-0.02,0.28-0.01,0.41,0
		c0.14,0,0.28,0,0.42-0.01c0.01,0,0.01,0,0.02,0c0.04,0,0.08-0.01,0.1,0.03c0.02,0.05-0.03,0.06-0.06,0.08
		c-0.1,0.08-0.14,0.18-0.13,0.31c0.02,0.18,0.04,0.37,0.07,0.55c0.02,0.16,0.07,0.33,0.08,0.49c0.01,0.2,0.06,0.39,0.11,0.59
		c0.01,0.04,0.02,0.09,0.06,0.12c0.03-0.01,0.03-0.04,0.04-0.07c0.04-0.12,0.03-0.25,0.05-0.38c0.01-0.07,0.02-0.15,0.04-0.22
		c0.05-0.16,0.05-0.33,0.08-0.5c0.02-0.14,0.05-0.29,0.07-0.43c0.01-0.07,0.02-0.14,0.03-0.21c0.01-0.07-0.01-0.13-0.04-0.19
		c-0.01-0.01-0.02-0.03-0.03-0.04c-0.02-0.02-0.04-0.05-0.03-0.08c0.02-0.04,0.05-0.03,0.09-0.03c0.27,0.02,0.53,0.01,0.8,0
		c0.04,0,0.09-0.02,0.11,0.03c0.03,0.05-0.01,0.08-0.04,0.11c-0.04,0.05-0.06,0.1-0.06,0.17c0,0.15,0.03,0.29,0.04,0.44
		c0.02,0.22,0.08,0.43,0.1,0.65c0.02,0.15,0.03,0.29,0.06,0.44c0.02,0.08,0.03,0.15,0.06,0.22c0.01,0.03,0.02,0.07,0.06,0.07
		c0.03-0.01,0.04-0.04,0.04-0.07c0.02-0.11,0.02-0.23,0.04-0.34c0.02-0.15,0.07-0.29,0.09-0.44c0.01-0.12,0.02-0.24,0.06-0.36
		c0.06-0.19,0.07-0.39,0.1-0.59c0.01-0.06,0-0.11-0.05-0.16c-0.02-0.02-0.04-0.04-0.05-0.07c-0.02-0.04,0-0.08,0.05-0.09
		c0.02,0,0.03,0,0.05,0c0.13,0,0.26,0,0.39,0c0.01,0,0.03,0,0.04,0c0.07,0.01,0.1,0.07,0.04,0.12c-0.13,0.11-0.16,0.26-0.19,0.41
		c-0.04,0.21-0.09,0.41-0.12,0.62c-0.03,0.19-0.08,0.38-0.12,0.57c-0.01,0.04-0.01,0.07-0.01,0.11c0,0.05-0.01,0.1-0.03,0.15
		c-0.07,0.17-0.07,0.35-0.08,0.52c0,0.08,0.03,0.1,0.12,0.09C10.83,19.23,10.78,19.3,10.72,19.36z"/>
	<path d="M14.21,7.38c-0.02,0.02-0.04,0.03-0.06,0.04C14.04,7.46,14,7.56,13.98,7.66c-0.01,0.05-0.02,0.1-0.02,0.16
		c0,0.23,0,0.47,0,0.7c0,0.06,0.01,0.12,0.03,0.18c0.02,0.07,0.06,0.13,0.13,0.17c0.02,0.01,0.05,0.03,0.04,0.07
		c-0.01,0.03-0.04,0.04-0.07,0.05c-0.02,0-0.04,0-0.06,0c-0.41-0.02-0.81-0.01-1.22-0.01c-0.24,0-0.47-0.05-0.7-0.12
		c-0.2-0.07-0.37-0.18-0.5-0.36c-0.03-0.04-0.07-0.09-0.1-0.13c-0.04-0.05-0.08-0.11-0.09-0.17c0-0.01-0.01-0.02-0.01-0.03
		c-0.06-0.08-0.08-0.18-0.1-0.27c-0.02-0.1-0.06-0.2-0.06-0.3c-0.01-0.11,0-0.23,0.02-0.34c0.02-0.09,0.05-0.17,0.06-0.26
		c0.01-0.05,0.04-0.08,0.06-0.13c0.08-0.17,0.21-0.31,0.37-0.42c0.06-0.04,0.12-0.08,0.2-0.1c0.01,0,0.01,0,0.02,0
		c0.14-0.11,0.32-0.09,0.48-0.13c0.21-0.04,0.42-0.01,0.63,0.02c0.15,0.02,0.3,0.03,0.46,0.02c0.02,0,0.04,0,0.07,0
		c0.07,0,0.09,0.02,0.1,0.09c0.02,0.17,0.03,0.33,0.05,0.5c0,0.05,0.01,0.1,0.03,0.15c0.01,0.02,0.02,0.05-0.01,0.07
		c-0.03,0.02-0.05-0.01-0.07-0.03c-0.05-0.05-0.09-0.11-0.13-0.17c-0.07-0.13-0.18-0.21-0.3-0.27c-0.15-0.08-0.32-0.14-0.5-0.1
		c-0.17,0.04-0.32,0.1-0.43,0.24c-0.16,0.21-0.24,0.44-0.24,0.7c0,0.03,0,0.06,0,0.09c0,0.35,0,0.35,0.12,0.67
		c0.07,0.18,0.18,0.33,0.33,0.43c0.18,0.11,0.37,0.15,0.57,0.06c0.05-0.02,0.07-0.06,0.08-0.11c0.02-0.14,0.05-0.29,0.03-0.44
		c0-0.04,0-0.08,0-0.12c0.01-0.14,0.01-0.28-0.03-0.42c-0.02-0.07-0.05-0.12-0.12-0.14C13.04,7.43,12.99,7.42,13,7.37
		c0.01-0.04,0.05-0.05,0.09-0.05c0.24,0.01,0.47,0,0.71,0.01c0.09,0,0.17-0.01,0.26-0.01C14.11,7.33,14.17,7.33,14.21,7.38z"/>
	<path d="M7.93,12.51c-0.12,0.01-0.21,0.01-0.31,0c-0.16-0.01-0.33,0.01-0.49,0c-0.04,0-0.08,0.01-0.11,0.02
		c-0.03,0-0.06,0.01-0.08-0.03c-0.02-0.04,0-0.07,0.03-0.1c0.02-0.02,0.04-0.04,0.06-0.07c0.02-0.04,0.03-0.08,0.03-0.13
		c0.03-0.69,0.02-1.39,0-2.08c0-0.08-0.03-0.15-0.11-0.19C6.93,9.93,6.91,9.9,6.92,9.87c0.01-0.04,0.04-0.04,0.07-0.05
		c0.03-0.01,0.06-0.01,0.09-0.01c0.26,0.01,0.53,0.01,0.79,0c0.01,0,0.02,0,0.03,0c0.03,0,0.07,0,0.09,0.03
		c0.02,0.03,0,0.07-0.02,0.09c-0.09,0.1-0.11,0.21-0.11,0.34c0,0.25-0.01,0.51-0.01,0.76c0,0.21,0.01,0.41,0.01,0.62
		c0,0.12-0.02,0.23,0,0.35c0.01,0.04,0.01,0.08,0.03,0.12c0.03,0.09,0.09,0.13,0.18,0.14c0.25,0.04,0.44-0.05,0.62-0.2
		c0.11-0.09,0.21-0.18,0.28-0.31c0.02-0.04,0.04-0.07,0.05-0.11c0.01-0.02,0.02-0.04,0.03-0.05c0.01-0.02,0.03-0.03,0.05-0.02
		c0.01,0.01,0.02,0.02,0.02,0.04c0,0.06,0.01,0.12-0.01,0.17c-0.03,0.08-0.04,0.17-0.08,0.24c-0.01,0.02-0.01,0.04-0.02,0.06
		C9,12.23,8.94,12.35,8.9,12.49c-0.02,0.09-0.05,0.1-0.13,0.05c-0.03-0.02-0.05-0.03-0.09-0.03C8.43,12.52,8.17,12.52,7.93,12.51z"
		/>
	<path d="M15.16,13.47c0.06,0,0.13,0.01,0.19,0.01c0.02,0,0.04,0,0.06,0.01c0.14,0.05,0.29,0.1,0.43,0.17
		c0.25,0.13,0.38,0.35,0.48,0.59c0.08,0.2,0.13,0.42,0.14,0.64c0,0.13-0.02,0.26-0.06,0.38c-0.01,0.03-0.02,0.05-0.02,0.08
		c-0.03,0.24-0.17,0.43-0.34,0.59c-0.15,0.14-0.32,0.23-0.52,0.28c-0.19,0.06-0.38,0.09-0.58,0.08c-0.07,0-0.14-0.01-0.21-0.03
		c-0.1-0.03-0.19-0.05-0.29-0.08c-0.29-0.11-0.52-0.3-0.66-0.58c-0.04-0.09-0.08-0.18-0.12-0.27c-0.02-0.04-0.02-0.07-0.02-0.11
		c-0.03-0.23-0.03-0.46,0-0.69c0.02-0.14,0.08-0.28,0.15-0.4c0.05-0.1,0.12-0.19,0.2-0.28c0.04-0.05,0.09-0.08,0.14-0.12
		c0.11-0.07,0.21-0.15,0.34-0.19c0.03-0.01,0.06-0.02,0.09-0.04c0.05-0.02,0.09-0.04,0.14-0.04C14.84,13.48,15,13.46,15.16,13.47z"
		/>
	<path class="st0" d="M15.6,15.02c0,0.14,0,0.28-0.02,0.41c-0.01,0.06-0.05,0.12-0.07,0.18c-0.04,0.17-0.16,0.26-0.31,0.34
		c-0.09,0.05-0.19,0.04-0.28,0c-0.2-0.11-0.33-0.28-0.4-0.49c-0.03-0.09-0.05-0.18-0.06-0.27c-0.01-0.06-0.02-0.13-0.03-0.19
		c-0.03-0.11-0.03-0.21-0.02-0.32c0.01-0.15,0.03-0.3,0.06-0.45c0.04-0.18,0.14-0.32,0.3-0.41c0.11-0.06,0.25-0.08,0.38,0.02
		c0.12,0.09,0.21,0.19,0.29,0.32c0.03,0.06,0.06,0.12,0.07,0.19c0,0.01,0,0.03,0.01,0.04c0.08,0.18,0.07,0.37,0.08,0.55
		C15.6,14.97,15.6,14.99,15.6,15.02z"/>
</g>
<line class="st22" x1="27.77" y1="1.82" x2="27.77" y2="24.23"/>
<g>
	<path class="st21" d="M42.48,6.26h-3.11V5.17c0-0.68-0.03-1.11-0.09-1.28c-0.06-0.17-0.2-0.26-0.42-0.26
		c-0.19,0-0.32,0.07-0.39,0.22c-0.07,0.15-0.1,0.53-0.1,1.14v5.73c0,0.54,0.03,0.89,0.1,1.06c0.07,0.17,0.21,0.25,0.41,0.25
		c0.23,0,0.38-0.1,0.46-0.29s0.12-0.57,0.12-1.12V9.21h-0.63V7.4h3.64v6.41h-1.95l-0.29-0.86c-0.21,0.37-0.48,0.65-0.8,0.83
		c-0.32,0.18-0.7,0.28-1.14,0.28c-0.52,0-1.01-0.13-1.47-0.38c-0.46-0.25-0.8-0.57-1.04-0.94c-0.24-0.37-0.38-0.77-0.44-1.18
		c-0.06-0.41-0.09-1.03-0.09-1.85V6.16c0-1.14,0.06-1.97,0.18-2.49c0.12-0.52,0.48-0.99,1.06-1.42c0.58-0.43,1.34-0.65,2.26-0.65
		c0.91,0,1.66,0.19,2.26,0.56c0.6,0.37,0.99,0.82,1.17,1.33c0.18,0.51,0.27,1.26,0.27,2.24V6.26z"/>
	<path class="st21" d="M49.81,1.86v9.55h1.89v2.39h-4.99V1.86H49.81z"/>
	<path class="st21" d="M62.34,8.86c0,1.2-0.03,2.05-0.08,2.55c-0.06,0.5-0.23,0.96-0.53,1.37c-0.3,0.41-0.7,0.73-1.21,0.95
		c-0.51,0.22-1.1,0.33-1.77,0.33c-0.64,0-1.21-0.1-1.72-0.31c-0.51-0.21-0.92-0.52-1.23-0.94c-0.31-0.42-0.49-0.87-0.55-1.36
		c-0.06-0.49-0.09-1.35-0.09-2.58V6.81c0-1.2,0.03-2.05,0.08-2.55c0.06-0.5,0.23-0.96,0.53-1.37c0.3-0.41,0.7-0.73,1.21-0.95
		c0.51-0.22,1.1-0.33,1.77-0.33c0.64,0,1.21,0.1,1.72,0.31c0.51,0.21,0.92,0.52,1.23,0.94c0.31,0.42,0.49,0.87,0.55,1.36
		c0.06,0.49,0.09,1.35,0.09,2.58V8.86z M59.24,4.93c0-0.56-0.03-0.91-0.09-1.07c-0.06-0.15-0.19-0.23-0.38-0.23
		c-0.16,0-0.29,0.06-0.37,0.19c-0.09,0.13-0.13,0.5-0.13,1.11v5.58c0,0.69,0.03,1.12,0.08,1.28c0.06,0.16,0.19,0.24,0.39,0.24
		c0.21,0,0.35-0.09,0.41-0.28c0.06-0.19,0.09-0.63,0.09-1.34V4.93z"/>
	<path class="st21" d="M78.22,1.86l-1.38,11.94h-3.88c-0.36-1.83-0.67-3.92-0.94-6.26c-0.12,1-0.41,3.09-0.87,6.26h-3.86L65.9,1.86
		h3.02l0.33,4.17l0.32,4.03c0.11-2.08,0.4-4.82,0.86-8.2h3.22c0.04,0.35,0.16,1.66,0.34,3.94l0.34,4.54
		c0.18-2.89,0.47-5.72,0.87-8.48H78.22z"/>
	<path class="st21" d="M88.99,1.86v11.94h-3.11V8.79h-0.93v5.02h-3.11V1.86h3.11v4.27h0.93V1.86H88.99z"/>
	<path class="st21" d="M96.36,1.86v11.94h-3.11V1.86H96.36z"/>
	<path class="st21" d="M106.89,1.86v2.39h-1.84v9.55h-3.11V4.25h-1.84V1.86H106.89z"/>
	<path class="st21" d="M110.62,1.86h5.18v2.39h-2.07v2.26h1.94v2.27h-1.94v2.63H116v2.39h-5.39V1.86z"/>
</g>
<g>
	<path class="st23" d="M35.53,16.39h0.45v6.23h-0.45V16.39z"/>
	<path class="st23" d="M40.92,16.39h0.45l4.11,5.5v-5.5h0.45v6.23h-0.45l-4.11-5.5v5.5h-0.45V16.39z"/>
	<path class="st23" d="M51.01,16.39h2.12c1.9,0,3.25,1.29,3.25,3.11c0,1.82-1.35,3.12-3.25,3.12h-2.12V16.39z M53.13,22.19
		c1.64,0,2.79-1.12,2.79-2.68c0-1.57-1.15-2.67-2.79-2.67h-1.67v5.36H53.13z"/>
	<path class="st23" d="M61.11,20.15v-3.76h0.45v3.76c0,1.25,0.83,2.14,2.02,2.14c1.19,0,2.02-0.89,2.02-2.14v-3.76h0.45v3.76
		c0,1.5-1.02,2.57-2.47,2.57S61.11,21.66,61.11,20.15z"/>
	<path class="st23" d="M70.62,21.73l0.28-0.35c0.55,0.55,1.33,0.91,2.19,0.91c1.01,0,1.66-0.54,1.66-1.26
		c0-0.69-0.55-1.05-1.81-1.35c-1.4-0.32-2.04-0.74-2.04-1.62c0-1.02,0.84-1.78,2.02-1.78c0.82,0,1.57,0.34,2.16,0.89l-0.27,0.35
		c-0.54-0.51-1.21-0.81-1.91-0.81c-0.9,0-1.54,0.56-1.54,1.3c0,0.62,0.56,0.93,1.81,1.23c1.37,0.33,2.04,0.79,2.04,1.74
		c0,0.99-0.82,1.73-2.13,1.73C72.13,22.72,71.26,22.36,70.62,21.73z"/>
	<path class="st23" d="M81.7,16.84h-2.22v-0.44h4.89v0.44h-2.22v5.78H81.7V16.84z"/>
	<path class="st23" d="M91.81,20.24l1.67,2.38h-0.54l-1.65-2.36h-1.99v2.36h-0.45v-6.23h2.59c1.27,0,2.2,0.8,2.2,1.93
		C93.65,19.35,92.89,20.1,91.81,20.24z M89.31,19.82h2.05c1.08,0,1.83-0.6,1.83-1.5c0-0.89-0.75-1.49-1.83-1.49h-2.05V19.82z"/>
	<path class="st23" d="M98.05,16.39h0.45v6.23h-0.45V16.39z"/>
	<path class="st23" d="M103.76,16.84v2.39h3.45v0.43h-3.45v2.51h3.76v0.44h-4.21v-6.23h4.21v0.44H103.76z"/>
	<path class="st23" d="M111.81,21.73l0.28-0.35c0.55,0.55,1.33,0.91,2.19,0.91c1.01,0,1.66-0.54,1.66-1.26
		c0-0.69-0.55-1.05-1.81-1.35c-1.4-0.32-2.04-0.74-2.04-1.62c0-1.02,0.84-1.78,2.02-1.78c0.82,0,1.57,0.34,2.16,0.89l-0.27,0.35
		c-0.54-0.51-1.21-0.81-1.91-0.81c-0.9,0-1.54,0.56-1.54,1.3c0,0.62,0.56,0.93,1.81,1.23c1.37,0.33,2.04,0.79,2.04,1.74
		c0,0.99-0.82,1.73-2.13,1.73C113.31,22.72,112.44,22.36,111.81,21.73z"/>
</g>
</svg>
